
<svg class="animated" id="freepik_stories-speech-to-text" xmlns="http://www.w3.org/2000/svg" viewBox="0 0 500 500" version="1.1" xmlns:xlink="http://www.w3.org/1999/xlink" xmlns:svgjs="http://svgjs.com/svgjs"><g id="freepik--background-complete--inject-2" class="animable" style="transform-origin: 250.655px 256.505px;"><path d="M78.22,141.48c.21,0,.38,10.32.38,23.05s-.17,23.06-.38,23.06-.39-10.32-.39-23.06S78,141.48,78.22,141.48Z" style="fill: rgb(224, 224, 224); transform-origin: 78.215px 164.535px;" id="elodn2589y0ce" class="animable"></path><path d="M84.23,146.54c.21,0,.38,7.88.38,17.6s-.17,17.6-.38,17.6-.39-7.87-.39-17.6S84,146.54,84.23,146.54Z" style="fill: rgb(224, 224, 224); transform-origin: 84.225px 164.14px;" id="elq9zc3cvjxn" class="animable"></path><path d="M91,151.57c.21,0,.39,5.71.39,12.75s-.18,12.74-.39,12.74-.39-5.7-.39-12.74S90.78,151.57,91,151.57Z" style="fill: rgb(224, 224, 224); transform-origin: 91px 164.315px;" id="elv0vycf5f6h" class="animable"></path><path d="M96.89,155.91c.21,0,.38,3.18.38,7.11s-.17,7.11-.38,7.11-.39-3.19-.39-7.11S96.67,155.91,96.89,155.91Z" style="fill: rgb(224, 224, 224); transform-origin: 96.885px 163.02px;" id="elti38fhmc6e" class="animable"></path><path d="M102.09,159.37c.21,0,.38,1.75.38,3.91s-.17,3.9-.38,3.9-.39-1.75-.39-3.9S101.87,159.37,102.09,159.37Z" style="fill: rgb(224, 224, 224); transform-origin: 102.085px 163.275px;" id="el58ge3oarnom" class="animable"></path><path d="M108,155.21c.22,0,.39,3.19.39,7.11s-.17,7.11-.39,7.11-.38-3.18-.38-7.11S107.77,155.21,108,155.21Z" style="fill: rgb(224, 224, 224); transform-origin: 108.005px 162.32px;" id="elao9f8hcbj8s" class="animable"></path><path d="M113.53,149.49c.22,0,.39,6,.39,13.35s-.17,13.36-.39,13.36-.38-6-.38-13.36S113.32,149.49,113.53,149.49Z" style="fill: rgb(224, 224, 224); transform-origin: 113.535px 162.845px;" id="elumbr1mg4c8" class="animable"></path><path d="M43.16,151.57c.22,0,.39,5.71.39,12.75s-.17,12.74-.39,12.74-.38-5.7-.38-12.74S43,151.57,43.16,151.57Z" style="fill: rgb(224, 224, 224); transform-origin: 43.165px 164.315px;" id="eliajjtnp9fo" class="animable"></path><path d="M49.06,155.91c.21,0,.39,3.18.39,7.11s-.18,7.11-.39,7.11-.39-3.19-.39-7.11S48.85,155.91,49.06,155.91Z" style="fill: rgb(224, 224, 224); transform-origin: 49.06px 163.02px;" id="el4r5a2cy9un9" class="animable"></path><path d="M54.26,159.37c.22,0,.39,1.75.39,3.91s-.17,3.9-.39,3.9-.38-1.75-.38-3.9S54.05,159.37,54.26,159.37Z" style="fill: rgb(224, 224, 224); transform-origin: 54.265px 163.275px;" id="elv6yejyuhht8" class="animable"></path><path d="M60.16,153.13c.21,0,.39,4.12.39,9.19s-.18,9.19-.39,9.19-.39-4.11-.39-9.19S60,153.13,60.16,153.13Z" style="fill: rgb(224, 224, 224); transform-origin: 60.16px 162.32px;" id="el15ck8cav9lf" class="animable"></path><path d="M65.71,149.49c.21,0,.38,6,.38,13.35s-.17,13.36-.38,13.36-.39-6-.39-13.36S65.49,149.49,65.71,149.49Z" style="fill: rgb(224, 224, 224); transform-origin: 65.705px 162.845px;" id="elji2kb89cils" class="animable"></path><path d="M72.47,146.72c.21,0,.39,7.6.39,17s-.18,17-.39,17-.38-7.6-.38-17S72.26,146.72,72.47,146.72Z" style="fill: rgb(224, 224, 224); transform-origin: 72.475px 163.72px;" id="elc9i04bqmdw7" class="animable"></path><path d="M36.86,169.43c-.21,0-.38-3.18-.38-7.11s.17-7.11.38-7.11.39,3.19.39,7.11S37.07,169.43,36.86,169.43Z" style="fill: rgb(224, 224, 224); transform-origin: 36.865px 162.32px;" id="elczxbvr32pro" class="animable"></path><path d="M31.66,166c-.21,0-.39-1.74-.39-3.9s.18-3.9.39-3.9.39,1.75.39,3.9S31.87,166,31.66,166Z" style="fill: rgb(224, 224, 224); transform-origin: 31.66px 162.1px;" id="el2kdi8wgz07h" class="animable"></path><path d="M119,155.21c.22,0,.39,3.19.39,7.11s-.17,7.11-.39,7.11-.38-3.18-.38-7.11S118.75,155.21,119,155.21Z" style="fill: rgb(224, 224, 224); transform-origin: 119.005px 162.32px;" id="elkbj9a26smg8" class="animable"></path><path d="M124.17,158.68c.21,0,.38,1.75.38,3.9s-.17,3.9-.38,3.9-.39-1.74-.39-3.9S124,158.68,124.17,158.68Z" style="fill: rgb(224, 224, 224); transform-origin: 124.165px 162.58px;" id="elvdcl9xenl8" class="animable"></path><path d="M400.65,175.7c.33,0,.59,15.61.59,34.85s-.26,34.86-.59,34.86-.58-15.6-.58-34.86S400.33,175.7,400.65,175.7Z" style="fill: rgb(224, 224, 224); transform-origin: 400.655px 210.555px;" id="el57n7kh7zzh9" class="animable"></path><path d="M409.74,183.36c.32,0,.58,11.91.58,26.61s-.26,26.61-.58,26.61-.59-11.91-.59-26.61S409.41,183.36,409.74,183.36Z" style="fill: rgb(224, 224, 224); transform-origin: 409.735px 209.97px;" id="el2cvp97hp5mn" class="animable"></path><path d="M420,191c.32,0,.59,8.63.59,19.27s-.27,19.27-.59,19.27-.58-8.63-.58-19.27S419.64,191,420,191Z" style="fill: rgb(224, 224, 224); transform-origin: 420.005px 210.27px;" id="elwtxy1vca1ee" class="animable"></path><path d="M428.87,197.52c.33,0,.59,4.81.59,10.74S429.2,219,428.87,219s-.58-4.81-.58-10.75S428.55,197.52,428.87,197.52Z" style="fill: rgb(224, 224, 224); transform-origin: 428.875px 208.26px;" id="el54tychuz4aa" class="animable"></path><path d="M436.74,202.76c.32,0,.58,2.64.58,5.9s-.26,5.9-.58,5.9-.58-2.64-.58-5.9S436.42,202.76,436.74,202.76Z" style="fill: rgb(224, 224, 224); transform-origin: 436.74px 208.66px;" id="elyhwjrqzia8g" class="animable"></path><path d="M445.65,196.47c.33,0,.59,4.81.59,10.74S446,218,445.65,218s-.58-4.81-.58-10.75S445.33,196.47,445.65,196.47Z" style="fill: rgb(224, 224, 224); transform-origin: 445.655px 207.235px;" id="eln6rjhorqgm" class="animable"></path><path d="M454,187.82c.33,0,.59,9,.59,20.18s-.26,20.19-.59,20.19-.58-9-.58-20.19S453.72,187.82,454,187.82Z" style="fill: rgb(224, 224, 224); transform-origin: 454.005px 208.005px;" id="eltnhcvdn4xws" class="animable"></path><path d="M347.66,191c.32,0,.58,8.63.58,19.27s-.26,19.27-.58,19.27-.58-8.63-.58-19.27S347.34,191,347.66,191Z" style="fill: rgb(224, 224, 224); transform-origin: 347.66px 210.27px;" id="eljkn3sj91bd" class="animable"></path><path d="M356.57,197.52c.33,0,.59,4.81.59,10.74S356.9,219,356.57,219s-.58-4.81-.58-10.75S356.25,197.52,356.57,197.52Z" style="fill: rgb(224, 224, 224); transform-origin: 356.575px 208.26px;" id="elgw8eaqhhwpp" class="animable"></path><path d="M364.44,202.76c.32,0,.58,2.64.58,5.9s-.26,5.9-.58,5.9-.58-2.64-.58-5.9S364.12,202.76,364.44,202.76Z" style="fill: rgb(224, 224, 224); transform-origin: 364.44px 208.66px;" id="elnqx6c1xkfo" class="animable"></path><path d="M373.35,193.32c.33,0,.59,6.22.59,13.89s-.26,13.9-.59,13.9-.58-6.22-.58-13.9S373,193.32,373.35,193.32Z" style="fill: rgb(224, 224, 224); transform-origin: 373.355px 207.215px;" id="elz62zawb9kh" class="animable"></path><path d="M381.74,187.82c.32,0,.59,9,.59,20.18s-.27,20.19-.59,20.19-.58-9-.58-20.19S381.42,187.82,381.74,187.82Z" style="fill: rgb(224, 224, 224); transform-origin: 381.745px 208.005px;" id="elsuhwxcmd0y" class="animable"></path><path d="M392,183.62c.32,0,.58,11.5.58,25.69S392.29,235,392,235s-.59-11.5-.59-25.69S391.64,183.62,392,183.62Z" style="fill: rgb(224, 224, 224); transform-origin: 391.995px 209.31px;" id="elarkhf0s4ef" class="animable"></path><path d="M338.13,218c-.32,0-.58-4.81-.58-10.74s.26-10.75.58-10.75.59,4.81.59,10.75S338.45,218,338.13,218Z" style="fill: rgb(224, 224, 224); transform-origin: 338.135px 207.255px;" id="el5jtet3sz1d8" class="animable"></path><path d="M330.27,212.72c-.33,0-.59-2.64-.59-5.9s.26-5.9.59-5.9.58,2.64.58,5.9S330.59,212.72,330.27,212.72Z" style="fill: rgb(224, 224, 224); transform-origin: 330.265px 206.82px;" id="elb7yiwn33kn8" class="animable"></path><path d="M462.25,196.47c.33,0,.59,4.81.59,10.74s-.26,10.75-.59,10.75-.58-4.81-.58-10.75S461.93,196.47,462.25,196.47Z" style="fill: rgb(224, 224, 224); transform-origin: 462.255px 207.215px;" id="eluzxcq0nldkq" class="animable"></path><path d="M470.12,201.71c.32,0,.58,2.64.58,5.9s-.26,5.9-.58,5.9-.59-2.64-.59-5.9S469.8,201.71,470.12,201.71Z" style="fill: rgb(224, 224, 224); transform-origin: 470.115px 207.61px;" id="elmckvacfg3x" class="animable"></path><path d="M420.62,114.34h0a16.19,16.19,0,0,1-16.18-16.18v-19A16.19,16.19,0,0,1,420.62,63h0A16.18,16.18,0,0,1,436.8,79.14v19A16.18,16.18,0,0,1,420.62,114.34Z" style="fill: rgb(235, 235, 235); transform-origin: 420.62px 88.67px;" id="el3vgxjccnwdf" class="animable"></path><path d="M420.63,124.19a23.91,23.91,0,0,1-23.89-23.89h2.31a21.6,21.6,0,0,0,21.57,21.58c12.71,0,21.58-8.89,21.58-21.58h2.31C444.51,114.35,434.69,124.18,420.63,124.19Z" style="fill: rgb(235, 235, 235); transform-origin: 420.625px 112.245px;" id="elvocdy98s8mm" class="animable"></path><rect x="419.47" y="123.02" width="2.31" height="11.7" style="fill: rgb(235, 235, 235); transform-origin: 420.625px 128.87px;" id="el8oe9leavt18" class="animable"></rect><rect x="406.5" y="133.05" width="28.25" height="2.31" style="fill: rgb(235, 235, 235); transform-origin: 420.625px 134.205px;" id="eli8teylk84df" class="animable"></rect><path d="M396.77,73.55a13.15,13.15,0,0,1-4.17-1.32c-3.45-1.47-4.6-2.22-4.2-3.45l.16-.48.54-.28c1.21-.54,4.27.71,4.87,1s3.63,1.59,4.07,2.83l.17.48-.23.55h0A1.23,1.23,0,0,1,396.77,73.55Z" style="fill: rgb(235, 235, 235); transform-origin: 393.267px 70.7207px;" id="ele3bxy7eyrlb" class="animable"></path><path d="M406,61.44c-.73,0-1.85-.82-4.18-4-2.76-3.75-2.62-4.66-2.57-5l.07-.47.82-.64.55,0c.3.05,1.21.18,4,3.93,3.22,4.38,2.85,5.21,2.07,5.78h0A1.21,1.21,0,0,1,406,61.44Z" style="fill: rgb(235, 235, 235); transform-origin: 403.264px 56.385px;" id="elf9qgo4z5foh" class="animable"></path><path d="M420.26,57.06l-.44-.38c-.22-.21-.88-.84-.83-5.25s.73-5,.95-5.24l.37-.34h.58c.71.06,1.68.13,1.62,5.6s-1,5.53-1.74,5.57Z" style="fill: rgb(235, 235, 235); transform-origin: 420.75px 51.455px;" id="elc920ku8ephv" class="animable"></path><path d="M434.46,60.2l-.48-.38c-1-.94-.11-2.26,1.89-4.92s3-3.9,4.21-3.19l.45.26.15.61c.28,1.37-1.76,4.12-2,4.43s-2.31,3-3.7,3.15Z" style="fill: rgb(235, 235, 235); transform-origin: 437.137px 55.8564px;" id="elof3xc3gf6di" class="animable"></path><path d="M444.93,73.37a1.14,1.14,0,0,1-1.11-.65c-.62-1.09.58-2,1.15-2.47a24.18,24.18,0,0,1,2.63-1.71c4.29-2.44,5.08-1.89,5.52-1.12.62,1.09-.57,2-1.15,2.46a21.89,21.89,0,0,1-2.63,1.72C447,72.93,445.7,73.37,444.93,73.37Z" style="fill: rgb(235, 235, 235); transform-origin: 448.47px 70.0696px;" id="elnpl8dpah5s" class="animable"></path><path d="M81.92,379.51c4.66-2.41,10.14-2.72,15.32-1.86,2.78.45,5.67,1.29,7.56,3.37s2.25,5.76.08,7.56a7.22,7.22,0,0,1-4.77,1.21c-4-.05-8.54-.76-11.78,1.67-1.84,1.39-3.07,3.71-5.28,4.39a5.23,5.23,0,0,1-5.74-2.55,9,9,0,0,1-.65-6.58A10.07,10.07,0,0,1,81.92,379.51Z" style="fill: rgb(235, 235, 235); transform-origin: 91.3411px 386.599px;" id="el33wnsjnllot" class="animable"></path><path d="M71.24,358.9c2.85,4.07,8.39,2.72,11,.24s3.65-6.08,4.64-9.52c2.26-7.84,4.53-16.07,2.85-24.06A13.36,13.36,0,0,0,86.62,319a7,7,0,0,0-6.62-2.2c-2.79.74-4.52,3.47-5.78,6.07a57.51,57.51,0,0,0-5.67,24.62c0,4,.46,8.12,2.69,11.39" style="fill: rgb(235, 235, 235); transform-origin: 79.4309px 339.076px;" id="elsllrw7m5inr" class="animable"></path><path d="M63.42,364.74c3.09-3.67,3.68-9,2.3-13.63s-4.48-8.51-8.07-11.7a43.4,43.4,0,0,0-14.45-8.53,15.48,15.48,0,0,0-6.5-1.1,6.8,6.8,0,0,0-5.45,3.3c-1.52,2.9-.06,6.42,1.52,9.29a109.33,109.33,0,0,0,9.49,14.45c2.84,3.67,6.1,7.29,10.44,8.94s8.84,1.47,11.13-1.54" style="fill: rgb(235, 235, 235); transform-origin: 48.5165px 348.28px;" id="elw4ep76jtpjq" class="animable"></path><path d="M71.05,420.28a8.2,8.2,0,0,0,.26-1.85c.13-1.34.29-3,.49-5a74,74,0,0,1,1.14-7.4,55.38,55.38,0,0,1,2.69-8.74,31.85,31.85,0,0,1,4.46-7.9,16.54,16.54,0,0,1,5.64-4.69,15.84,15.84,0,0,1,4.75-1.48,8.78,8.78,0,0,0,1.84-.27,9.08,9.08,0,0,0-1.88,0,14.5,14.5,0,0,0-5,1.29,16.82,16.82,0,0,0-5.95,4.73A31.42,31.42,0,0,0,74.92,397a53.59,53.59,0,0,0-2.67,8.88,63.28,63.28,0,0,0-1,7.5c-.16,2.14-.22,3.88-.25,5.08A9.33,9.33,0,0,0,71.05,420.28Z" style="fill: rgb(224, 224, 224); transform-origin: 81.6485px 401.591px;" id="elpuk6qvhblf" class="animable"></path><path d="M71.4,416.4a3.62,3.62,0,0,0,0-.86c0-.64,0-1.46,0-2.45,0-2.13,0-5.21.11-9,.19-7.61.85-15.8,2.11-27.34,1.2-10.86,2.81-23.49,4.51-31.71.36-1.87.73-3.55,1.07-5s.61-2.75.88-3.78.42-1.76.58-2.38a4.34,4.34,0,0,0,.15-.85,3.19,3.19,0,0,0-.3.8c-.19.62-.43,1.4-.71,2.36s-.64,2.28-1,3.75-.79,3.14-1.19,5a278.74,278.74,0,0,0-4.74,29.42c-1.27,11.57-1.84,22.1-1.89,29.73,0,3.82,0,6.91.14,9,.06,1,.11,1.8.15,2.45A3.37,3.37,0,0,0,71.4,416.4Z" style="fill: rgb(224, 224, 224); transform-origin: 75.895px 374.715px;" id="el4h1qva3lea9" class="animable"></path><path d="M71.45,396.08a17.27,17.27,0,0,0,0-2.56c-.09-1.65-.32-4-.78-6.95a91.28,91.28,0,0,0-2.26-10.11,83.26,83.26,0,0,0-4.23-12,63.94,63.94,0,0,0-12.42-19.35,31.61,31.61,0,0,0-2.93-2.71c-.45-.38-.84-.76-1.25-1.06l-1.13-.78a14.22,14.22,0,0,0-2.16-1.38c-.12.16,3.06,2,7.08,6.3a67.57,67.57,0,0,1,12.11,19.28,94.84,94.84,0,0,1,4.25,11.86c1.11,3.72,1.85,7.14,2.41,10s.83,5.24,1,6.87A16.91,16.91,0,0,0,71.45,396.08Z" style="fill: rgb(224, 224, 224); transform-origin: 57.8921px 367.63px;" id="elenj1uri5a69" class="animable"></path><polygon points="51.81 431.92 53.85 459.82 89.68 459.82 91.72 431.92 51.81 431.92" style="fill: rgb(224, 224, 224); transform-origin: 71.765px 445.87px;" id="elrs1w5p1bk4l" class="animable"></polygon><rect x="48.35" y="420.93" width="47.64" height="10.99" style="fill: rgb(224, 224, 224); transform-origin: 72.17px 426.425px;" id="elsjuyiy3p6a" class="animable"></rect><polygon points="48.35 458.75 48.35 461.8 50.59 461.8 95.21 461.8 95.21 458.75 48.35 458.75" style="fill: rgb(235, 235, 235); transform-origin: 71.78px 460.275px;" id="elflwmtvrvkv" class="animable"></polygon><polygon points="52.78 467.16 50.59 461.8 93.5 461.8 90.94 467.16 52.78 467.16" style="fill: rgb(224, 224, 224); transform-origin: 72.045px 464.48px;" id="el5jtg6jhk9ze" class="animable"></polygon><path d="M91.05,441s0,.09-.17.26l-.53.71-2.09,2.67-.09.12-.09-.13L83,437.58h.3l-5,7.15L78,445l-.18-.21-6-7.12h.35l-.33.42-5.36,6.71-.17.22-.17-.23c-1.82-2.57-3.52-5-5-7.15l.29,0-6.22,7.08-.11.13-.08-.14-2-3.27-.5-.88a1.05,1.05,0,0,1-.15-.31,1.46,1.46,0,0,1,.2.28l.56.84,2,3.21H55l6.12-7.18.15-.18.14.2,5.1,7.11H66.2l5.34-6.72.33-.41.17-.22.17.21,6,7.14h-.34l5.1-7.11.15-.21.15.21,5,7.17h-.19l2.18-2.6.58-.67C91,441.11,91,441,91.05,441Z" style="fill: rgb(245, 245, 245); transform-origin: 71.71px 441.1px;" id="elp7i044gwf0q" class="animable"></path><path d="M92.22,431.74c0,.12-9,.22-20.06.22s-20-.1-20-.22,9-.22,20-.22S92.22,431.62,92.22,431.74Z" style="fill: rgb(245, 245, 245); transform-origin: 72.19px 431.74px;" id="elkye04246yyf" class="animable"></path><path d="M94,462.1c0,.12-9.76.22-21.8.22s-21.79-.1-21.79-.22,9.75-.22,21.79-.22S94,462,94,462.1Z" style="fill: rgb(245, 245, 245); transform-origin: 72.205px 462.1px;" id="elxfuv9s2mh8" class="animable"></path></g><g id="freepik--Device--inject-2" class="animable" style="transform-origin: 264.135px 255.08px;"><path d="M335.2,467.16H191.92c-17.31-.08-31.94-14.84-31.87-32.15l1.53-360.84A31.35,31.35,0,0,1,193.08,43L337,43.61A31.36,31.36,0,0,1,368.22,75.1l-1.53,360.84A31.34,31.34,0,0,1,335.2,467.16Z" style="fill: rgb(38, 50, 56); transform-origin: 264.135px 255.08px;" id="elri18wou3rge" class="animable"></path><path d="M336.81,58.77l-27.91-.13a6.94,6.94,0,0,0-6.81,7l0,5.06a6.92,6.92,0,0,1-6.8,7l-54.4-.25a6.94,6.94,0,0,1-6.75-7.11l0-5.06a7,7,0,0,0-6.75-7.12l-9.82,0-24.42-.11A22,22,0,0,0,171.1,80l-1.49,352.21a22,22,0,0,0,21.86,22.05l143.64.66A22,22,0,0,0,357.17,433l1.49-352.21A22,22,0,0,0,336.81,58.77Z" style="fill: rgb(224, 224, 224); transform-origin: 264.135px 256.485px;" id="elph8ua9t91oc" class="animable"></path><path d="M336.81,58.77l-27.91-.13a6.94,6.94,0,0,0-6.81,7l0,5.06a6.92,6.92,0,0,1-6.8,7l-54.4-.25a6.94,6.94,0,0,1-6.75-7.11l0-5.06a7,7,0,0,0-6.75-7.12l-9.82,0-24.42-.11A22,22,0,0,0,171.1,80l-.19,45.28H358.47l.19-44.43A22,22,0,0,0,336.81,58.77Z" style="fill: rgb(255, 114, 94); transform-origin: 264.785px 91.665px;" id="eljm66fgkieq" class="animable"></path><path d="M185.12,110a.52.52,0,0,1-.38-.17l-3.82-4.54a.51.51,0,0,1,0-.67l3.81-3.93a.5.5,0,0,1,.72.7L182,105l3.53,4.18a.51.51,0,0,1-.07.71A.52.52,0,0,1,185.12,110Z" style="fill: rgb(255, 255, 255); transform-origin: 183.218px 105.27px;" id="elvfk50bmj8d8" class="animable"></path><path d="M190.14,105.55h-8.67a.5.5,0,0,1-.5-.5.5.5,0,0,1,.5-.5h8.67a.5.5,0,0,1,.5.5A.5.5,0,0,1,190.14,105.55Z" style="fill: rgb(255, 255, 255); transform-origin: 185.805px 105.05px;" id="el8hx8ghzh8km" class="animable"></path><path d="M281,105.29c0,.14-13.86.26-30.94.26s-30.94-.12-30.94-.26S233,105,250,105,281,105.15,281,105.29Z" style="fill: rgb(255, 255, 255); transform-origin: 250.06px 105.275px;" id="elnxjreozkczk" class="animable"></path><path d="M264.18,111.92c0,.14-10.1.26-22.54.26s-22.54-.12-22.54-.26,10.09-.26,22.54-.26S264.18,111.78,264.18,111.92Z" style="fill: rgb(255, 255, 255); transform-origin: 241.64px 111.92px;" id="elvxoo7wcryp" class="animable"></path><path d="M338.91,101.09a1.26,1.26,0,1,1-1.26-1.26A1.26,1.26,0,0,1,338.91,101.09Z" style="fill: rgb(255, 255, 255); transform-origin: 337.65px 101.09px;" id="el9esf86w0xrd" class="animable"></path><path d="M338.91,105.29a1.26,1.26,0,1,1-1.26-1.26A1.26,1.26,0,0,1,338.91,105.29Z" style="fill: rgb(255, 255, 255); transform-origin: 337.65px 105.29px;" id="elidq3w1kmaj" class="animable"></path><circle cx="337.65" cy="109.49" r="1.26" style="fill: rgb(255, 255, 255); transform-origin: 337.65px 109.49px;" id="elom66tv8u0xg" class="animable"></circle><rect x="170.52" y="125.25" width="187.12" height="184.54" style="fill: rgb(255, 255, 255); transform-origin: 264.08px 217.52px;" id="elhzcfi9jul9" class="animable"></rect><g id="eldh3rswxcdmi"><g style="opacity: 0.3; transform-origin: 266.665px 376.165px;" class="animable"><path d="M303.86,376.15l0-.6c0-.4,0-1-.08-1.77a36.49,36.49,0,0,0-2.59-11.36,35.53,35.53,0,0,0-2.58-5.23,37.62,37.62,0,0,0-9.43-10.53,35.48,35.48,0,0,0-7.08-4.23,36.18,36.18,0,0,0-8.53-2.69,36.77,36.77,0,0,0-9.55-.53,37.37,37.37,0,0,0-5,.7,39,39,0,0,0-4.95,1.41,37.13,37.13,0,0,0-17.22,12.92,37.64,37.64,0,0,0-3,4.86c-.46.85-.84,1.73-1.24,2.62s-.73,1.8-1,2.73a37,37,0,0,0-1.9,11.69,39.51,39.51,0,0,0,.48,6,36.88,36.88,0,0,0,1.41,5.73c.3.93.67,1.83,1,2.74s.79,1.77,1.25,2.62a35.57,35.57,0,0,0,3,4.86A37.13,37.13,0,0,0,254.07,411a39,39,0,0,0,4.95,1.41,37.44,37.44,0,0,0,14.53.17,37,37,0,0,0,15.6-6.92,37.62,37.62,0,0,0,9.43-10.53,37.19,37.19,0,0,0,2.59-5.23,37.94,37.94,0,0,0,1.52-4.66,36.94,36.94,0,0,0,1.06-6.7c.07-.78.06-1.37.08-1.77l0-.6v.6c0,.4,0,1-.06,1.77a36.12,36.12,0,0,1-1,6.72,38.12,38.12,0,0,1-1.51,4.69,35.7,35.7,0,0,1-2.58,5.25,37.55,37.55,0,0,1-9.44,10.6,37.1,37.1,0,0,1-15.68,7,37.23,37.23,0,0,1-9.61.54,37.62,37.62,0,0,1-5-.69,41.37,41.37,0,0,1-5-1.42,37.34,37.34,0,0,1-17.34-13,36.5,36.5,0,0,1-3-4.9c-.46-.85-.86-1.74-1.26-2.64s-.73-1.81-1-2.75a37.4,37.4,0,0,1-1.42-5.77,40,40,0,0,1-.48-6,37.5,37.5,0,0,1,1.91-11.77c.29-.93.67-1.84,1-2.75s.79-1.78,1.25-2.64A37.33,37.33,0,0,1,254,341.1a41.37,41.37,0,0,1,5-1.42,37.62,37.62,0,0,1,5-.69,37.23,37.23,0,0,1,9.61.54,36.39,36.39,0,0,1,8.57,2.72,36.79,36.79,0,0,1,7.11,4.26,37.74,37.74,0,0,1,9.44,10.61,35.7,35.7,0,0,1,2.58,5.25,38.56,38.56,0,0,1,1.51,4.68,36.32,36.32,0,0,1,1,6.73c.07.77,0,1.37.06,1.77Z" style="fill: rgb(255, 114, 94); transform-origin: 266.665px 376.165px;" id="elskyturu4una" class="animable"></path></g></g><path d="M299.15,375.35s0-.18,0-.52,0-.86-.07-1.53a33.4,33.4,0,0,0-.92-5.78,32,32,0,0,0-11.69-17.61,31.56,31.56,0,0,0-6.11-3.65,31.1,31.1,0,0,0-7.35-2.32,32.05,32.05,0,0,0-8.24-.45,31.69,31.69,0,0,0-4.28.6,35,35,0,0,0-4.27,1.22,31.94,31.94,0,0,0-14.85,11.14,31,31,0,0,0-2.61,4.19,29.9,29.9,0,0,0-2,4.62,31.83,31.83,0,0,0,0,20.17,29.9,29.9,0,0,0,2,4.62,32,32,0,0,0,17.46,15.34,33.22,33.22,0,0,0,4.27,1.21,30.18,30.18,0,0,0,4.28.6,31.19,31.19,0,0,0,8.24-.45,31.89,31.89,0,0,0,13.47-6,32.38,32.38,0,0,0,8.13-9.08,32.73,32.73,0,0,0,3.55-8.53,33.26,33.26,0,0,0,.92-5.78c.06-.67.05-1.18.07-1.52s0-.52,0-.52,0,.7,0,2a31.71,31.71,0,0,1-4.4,14.38,32.51,32.51,0,0,1-8.15,9.16A32.05,32.05,0,0,1,273,407a32,32,0,0,1-8.29.47,34,34,0,0,1-4.32-.6,35.41,35.41,0,0,1-4.3-1.22,32.1,32.1,0,0,1-17.6-15.45,30.32,30.32,0,0,1-2-4.65,32.14,32.14,0,0,1,0-20.33,30.32,30.32,0,0,1,2-4.65,31.51,31.51,0,0,1,2.63-4.23,32,32,0,0,1,19.27-12.43,30.59,30.59,0,0,1,4.31-.6,31.63,31.63,0,0,1,8.3.47,31.88,31.88,0,0,1,13.53,6,32,32,0,0,1,11.67,17.73,31.79,31.79,0,0,1,.88,5.8C299.17,374.64,299.15,375.35,299.15,375.35Z" style="fill: rgb(255, 114, 94); transform-origin: 267px 375.388px;" id="eljgill7joku" class="animable"></path><g id="elumpkzdqtu2"><circle cx="266.7" cy="376.15" r="26.39" style="fill: rgb(255, 114, 94); transform-origin: 266.7px 376.15px; transform: rotate(-45deg);" class="animable"></circle></g><rect x="263.17" y="368.13" width="6.98" height="11.08" rx="3.39" style="fill: rgb(250, 250, 250); transform-origin: 266.66px 373.67px;" id="els98qur5krcb" class="animable"></rect><path d="M266.66,381.33a5.15,5.15,0,0,1-5.14-5.15.25.25,0,0,1,.49,0,4.66,4.66,0,0,0,4.65,4.66,4.46,4.46,0,0,0,4.66-4.66.25.25,0,0,1,.49,0A4.93,4.93,0,0,1,266.66,381.33Z" style="fill: rgb(250, 250, 250); transform-origin: 266.668px 378.657px;" id="eln2g8mvnb07c" class="animable"></path><rect x="266.42" y="381.08" width="0.49" height="2.52" style="fill: rgb(255, 255, 255); transform-origin: 266.665px 382.34px;" id="el7jw8b1oozng" class="animable"></rect><path d="M269.71,383.74h-6.09a.25.25,0,1,1,0-.49h6.09a.25.25,0,0,1,0,.49Z" style="fill: rgb(255, 255, 255); transform-origin: 266.615px 383.495px;" id="el57ljyjlcjp8" class="animable"></path><path d="M261.56,370.15c0,.06-.4-.06-.84-.25s-.79-.36-.77-.43.42,0,.87.2S261.59,370.09,261.56,370.15Z" style="fill: rgb(255, 255, 255); transform-origin: 260.756px 369.805px;" id="elt4mre1psmj" class="animable"></path><path d="M263.52,367.54c-.06,0-.37-.29-.71-.74s-.56-.86-.5-.9.37.29.71.75S263.58,367.5,263.52,367.54Z" style="fill: rgb(255, 255, 255); transform-origin: 262.915px 366.718px;" id="el92a82kx2wef" class="animable"></path><path d="M266.68,366.61c-.07,0-.12-.43-.12-1s.07-1,.14-.95.12.43.12.95A2,2,0,0,1,266.68,366.61Z" style="fill: rgb(255, 255, 255); transform-origin: 266.697px 365.633px;" id="elx4d8zw54zzp" class="animable"></path><path d="M270.73,365.92c.06,0-.09.4-.38.78s-.59.62-.64.58.17-.36.44-.73S270.67,365.89,270.73,365.92Z" style="fill: rgb(255, 255, 255); transform-origin: 270.223px 366.601px;" id="eldywph0aijo" class="animable"></path><path d="M273.45,369.22c0,.06-.29.31-.72.56s-.82.4-.85.33.29-.31.72-.55S273.42,369.16,273.45,369.22Z" style="fill: rgb(255, 255, 255); transform-origin: 272.664px 369.667px;" id="el9t76ubllu1i" class="animable"></path><path d="M317.06,374.49l2.88-3.62a1.28,1.28,0,0,1,1-.49h8.67a1.3,1.3,0,0,1,1.3,1.29v7.14a1.3,1.3,0,0,1-1.3,1.3h-8.53a1.29,1.29,0,0,1-1-.45l-3-3.52A1.31,1.31,0,0,1,317.06,374.49Z" style="fill: rgb(69, 90, 100); transform-origin: 323.844px 375.245px;" id="elbjnw2tlaxa" class="animable"></path><path d="M202.94,370.83a5.32,5.32,0,0,1,1.28-.55l.27-1.27,2.14,0,.3,1.26a5.17,5.17,0,0,1,1.3.51l1.08-.71,1.54,1.49-.67,1.1a5.36,5.36,0,0,1,.56,1.28l1.26.27,0,2.14-1.25.3a5.61,5.61,0,0,1-.52,1.3L211,379l-1.48,1.54-1.11-.67a5,5,0,0,1-1.28.56l-.26,1.26-2.14,0-.31-1.26a5.1,5.1,0,0,1-1.29-.51l-1.09.71-1.53-1.48.67-1.11a5,5,0,0,1-.56-1.28l-1.27-.26,0-2.14,1.25-.31a5.32,5.32,0,0,1,.51-1.3l-.71-1.08,1.49-1.54,1.1.67Zm1.15,2.85a2.29,2.29,0,1,0,3.24-.05A2.29,2.29,0,0,0,204.09,373.68Z" style="fill: rgb(69, 90, 100); transform-origin: 205.675px 375.35px;" id="el2wq4olpeirs" class="animable"></path><g id="elbkqxl78l4tc"><rect x="321.25" y="374.74" width="6.49" height="1" style="fill: rgb(255, 255, 255); transform-origin: 324.495px 375.24px; transform: rotate(-45deg);" class="animable"></rect></g><g id="eliqdjwp0oalj"><rect x="324.33" y="372" width="1" height="6.49" style="fill: rgb(255, 255, 255); transform-origin: 324.83px 375.245px; transform: rotate(-45.01deg);" class="animable"></rect></g><rect x="179.85" y="251.13" width="142.34" height="24.51" rx="11.91" style="fill: rgb(235, 235, 235); transform-origin: 251.02px 263.385px;" id="el5ag8ksi4l2r" class="animable"></rect><rect x="170.13" y="284.9" width="188" height="28.87" style="fill: rgb(245, 245, 245); transform-origin: 264.13px 299.335px;" id="elqs3yw3b0sz" class="animable"></rect><path d="M244.11,298H245v5.69h3.52v.8h-4.45Z" style="fill: rgb(38, 50, 56); transform-origin: 246.295px 301.245px;" id="elxy6ks5ymbj" class="animable"></path><path d="M249.33,298a.59.59,0,0,1,.6-.59.58.58,0,1,1-.6.59Zm.16,1.52h.89v4.91h-.89Z" style="fill: rgb(38, 50, 56); transform-origin: 249.91px 300.92px;" id="eluhkio1h0tmk" class="animable"></path><path d="M251.45,304l.37-.71a3.16,3.16,0,0,0,1.73.51c.83,0,1.17-.25,1.17-.67,0-1.1-3.11-.15-3.11-2.1,0-.88.79-1.48,2-1.48a3.57,3.57,0,0,1,1.79.45l-.38.7a2.54,2.54,0,0,0-1.42-.39c-.78,0-1.16.29-1.16.68,0,1.16,3.12.21,3.12,2.12,0,.9-.82,1.46-2.13,1.46A3.6,3.6,0,0,1,251.45,304Z" style="fill: rgb(38, 50, 56); transform-origin: 253.505px 302.06px;" id="elz2ho6jpp73g" class="animable"></path><path d="M259.48,304.19a1.67,1.67,0,0,1-1.07.34,1.4,1.4,0,0,1-1.56-1.54v-2.7H256v-.73h.84v-1.08h.89v1.08h1.41v.73h-1.41V303a.73.73,0,0,0,.77.83,1.08,1.08,0,0,0,.69-.23Z" style="fill: rgb(38, 50, 56); transform-origin: 257.74px 301.51px;" id="eliwl3d28r79" class="animable"></path><path d="M264.81,302.31h-4a1.67,1.67,0,0,0,1.79,1.44,1.85,1.85,0,0,0,1.42-.59l.49.57a2.68,2.68,0,0,1-4.59-1.71,2.41,2.41,0,0,1,2.47-2.51,2.37,2.37,0,0,1,2.43,2.53A2.45,2.45,0,0,1,264.81,302.31Zm-4-.64H264a1.59,1.59,0,0,0-3.16,0Z" style="fill: rgb(38, 50, 56); transform-origin: 262.372px 302.022px;" id="eltevd496wgvm" class="animable"></path><path d="M270.73,301.64v2.83h-.89v-2.72c0-1-.48-1.44-1.33-1.44a1.47,1.47,0,0,0-1.56,1.63v2.53h-.89v-4.91h.85v.74a2.14,2.14,0,0,1,1.78-.79A1.91,1.91,0,0,1,270.73,301.64Z" style="fill: rgb(38, 50, 56); transform-origin: 268.402px 301.987px;" id="elv8n9187slym" class="animable"></path><path d="M272.22,298a.59.59,0,0,1,.6-.59.58.58,0,1,1-.6.59Zm.15,1.52h.89v4.91h-.89Z" style="fill: rgb(38, 50, 56); transform-origin: 272.8px 300.92px;" id="elr6g56qeb81j" class="animable"></path><path d="M279.63,301.64v2.83h-.89v-2.72c0-1-.49-1.44-1.33-1.44a1.46,1.46,0,0,0-1.56,1.63v2.53H275v-4.91h.86v.74a2.1,2.1,0,0,1,1.77-.79A1.91,1.91,0,0,1,279.63,301.64Z" style="fill: rgb(38, 50, 56); transform-origin: 277.322px 301.988px;" id="elgkrhl7y78hi" class="animable"></path><path d="M286,299.56v4.25a2.23,2.23,0,0,1-2.55,2.52,3.62,3.62,0,0,1-2.34-.73l.42-.69a3,3,0,0,0,1.9.64c1.15,0,1.68-.54,1.68-1.65v-.39a2.23,2.23,0,0,1-1.77.76,2.38,2.38,0,1,1,0-4.76,2.25,2.25,0,0,1,1.82.81v-.76Zm-.87,2.33a1.69,1.69,0,1,0-1.69,1.6A1.57,1.57,0,0,0,285.13,301.89Z" style="fill: rgb(38, 50, 56); transform-origin: 283.491px 302.932px;" id="elb0x6sd55kfq" class="animable"></path><path d="M287.28,303.89a.62.62,0,0,1,.63-.63.61.61,0,0,1,.61.63.62.62,0,0,1-.61.64A.63.63,0,0,1,287.28,303.89Z" style="fill: rgb(38, 50, 56); transform-origin: 287.9px 303.895px;" id="elrjcwovhhi6" class="animable"></path><path d="M289.38,303.89a.62.62,0,0,1,.63-.63.61.61,0,0,1,.62.63.62.62,0,0,1-.62.64A.63.63,0,0,1,289.38,303.89Z" style="fill: rgb(38, 50, 56); transform-origin: 290.005px 303.895px;" id="elc0n7z8mxfa9" class="animable"></path><path d="M291.49,303.89a.62.62,0,0,1,.63-.63.61.61,0,0,1,.61.63.62.62,0,0,1-.61.64A.63.63,0,0,1,291.49,303.89Z" style="fill: rgb(38, 50, 56); transform-origin: 292.11px 303.895px;" id="elzaoma1zznj" class="animable"></path><path d="M201.58,260v6.49h-.93v-2.89h-3.73v2.89H196V260h.92v2.79h3.73V260Z" style="fill: rgb(38, 50, 56); transform-origin: 198.79px 263.245px;" id="elzllvmkka8yr" class="animable"></path><path d="M203.23,260.08a.59.59,0,0,1,.61-.59.58.58,0,1,1-.61.59Zm.16,1.52h.89v4.91h-.89Z" style="fill: rgb(38, 50, 56); transform-origin: 203.81px 263px;" id="ele628ulpk7b" class="animable"></path><path d="M205.77,266a.59.59,0,0,1,.62-.6.6.6,0,0,1,0,1.19A.6.6,0,0,1,205.77,266Zm.09-6h1l-.18,4.44H206Z" style="fill: rgb(38, 50, 56); transform-origin: 206.341px 263.295px;" id="el8ti8u7zfx7n" class="animable"></path><path d="M208.07,265.93a.62.62,0,0,1,.63-.63.61.61,0,0,1,.62.63.62.62,0,0,1-.62.64A.63.63,0,0,1,208.07,265.93Z" style="fill: rgb(38, 50, 56); transform-origin: 208.695px 265.935px;" id="elpeiqkf1fy9" class="animable"></path><path d="M210.18,265.93a.62.62,0,1,1,.63.64A.62.62,0,0,1,210.18,265.93Z" style="fill: rgb(38, 50, 56); transform-origin: 210.8px 265.95px;" id="ely5um79m9as" class="animable"></path><path d="M212.28,265.93a.62.62,0,0,1,.63-.63.6.6,0,0,1,.61.63.61.61,0,0,1-.61.64A.63.63,0,0,1,212.28,265.93Z" style="fill: rgb(38, 50, 56); transform-origin: 212.9px 265.935px;" id="elnkc6m7eqru" class="animable"></path><circle cx="338.55" cy="263.39" r="11.99" style="fill: rgb(255, 114, 94); transform-origin: 338.55px 263.39px;" id="elfuoom7k8ysa" class="animable"></circle><path d="M335.84,262.52v-3.35a.35.35,0,0,1,.5-.31l8.67,4.28a.34.34,0,0,1,0,.62l-8.67,4.16a.35.35,0,0,1-.5-.31v-2.85a.34.34,0,0,1,.25-.33l3.18-.9-3.15-.67A.36.36,0,0,1,335.84,262.52Z" style="fill: rgb(255, 255, 255); transform-origin: 340.525px 263.39px;" id="elu4uj5k2ghvg" class="animable"></path><path d="M348.76,139.83a.82.82,0,0,0-.52-1.46h-156a4.27,4.27,0,0,0-4.27,4.27v30.75a4.27,4.27,0,0,0,4.27,4.27H334.76a4.27,4.27,0,0,0,4.27-4.27V148.23a.81.81,0,0,1,.3-.63Z" style="fill: rgb(235, 235, 235); transform-origin: 268.519px 158.015px;" id="elodnnpedtn4k" class="animable"></path><path d="M313.89,153.93c0,.14-24.22.26-54.09.26s-54.1-.12-54.1-.26,24.22-.27,54.1-.27S313.89,153.78,313.89,153.93Z" style="fill: rgb(38, 50, 56); transform-origin: 259.795px 153.925px;" id="el09uxi9of0ohm" class="animable"></path><path d="M313.89,161.37c0,.14-24.22.26-54.09.26s-54.1-.12-54.1-.26,24.22-.26,54.1-.26S313.89,161.23,313.89,161.37Z" style="fill: rgb(38, 50, 56); transform-origin: 259.795px 161.37px;" id="elkusni5ddqcp" class="animable"></path><rect x="221.88" y="182.66" width="116.18" height="24.67" rx="3.99" style="fill: rgb(235, 235, 235); transform-origin: 279.97px 194.995px;" id="el9ejn8a9bmha" class="animable"></rect><path d="M325.5,194.3c0,.14-20.48.26-45.73.26S234,194.44,234,194.3s20.47-.26,45.74-.26S325.5,194.16,325.5,194.3Z" style="fill: rgb(38, 50, 56); transform-origin: 279.75px 194.3px;" id="elb8r3yiorslt" class="animable"></path></g><g id="freepik--Character--inject-2" class="animable" style="transform-origin: 127.039px 280.303px;"><path d="M98.1,423.65,82.38,444.32l-7.72,19.94a2.67,2.67,0,0,1-3.61,1.45h0a2.63,2.63,0,0,1-1.49-1.93c-1-5.4-4.48-25.3-3.24-26.75,1.43-1.68,15.14-22.91,15.14-22.91Z" style="fill: rgb(255, 114, 94); transform-origin: 82.0781px 440.039px;" id="el8z6oul9v6li" class="animable"></path><g id="el857c1iain08"><g style="opacity: 0.6; transform-origin: 68.4939px 450.67px;" class="animable"><path d="M71.05,465.71l-3.7-30.1-.65.89a4,4,0,0,0-.75,2.66c.19,2.54.89,9.53,3.54,24.57a2.68,2.68,0,0,0,1.56,2Z" style="fill: rgb(255, 255, 255); transform-origin: 68.4939px 450.67px;" id="elp2j8z25rp3" class="animable"></path></g></g><g id="elea6txtkj5ft"><g style="opacity: 0.6; transform-origin: 75.1454px 432.565px;" class="animable"><path d="M76.58,432a1.61,1.61,0,0,1-.88,2,1.55,1.55,0,0,1-2-.86,1.71,1.71,0,0,1,.94-2.07,1.61,1.61,0,0,1,1.93,1.11" style="fill: rgb(255, 255, 255); transform-origin: 75.1454px 432.565px;" id="elhoxh5g5jz6t" class="animable"></path></g></g><path d="M72.9,453a7.88,7.88,0,0,1,3-.3A8.05,8.05,0,0,1,78.69,454s-.09-.4-.54-.82a4.06,4.06,0,0,0-2.12-1,4.1,4.1,0,0,0-2.35.26C73.12,452.69,72.86,453,72.9,453Z" style="fill: rgb(38, 50, 56); transform-origin: 75.793px 453.056px;" id="elf41ibxo4ifc" class="animable"></path><path d="M72.36,456.94a22.21,22.21,0,0,1,2.52.44,20.49,20.49,0,0,1,2.24,1.23c.14-.07-.55-1.25-2.06-1.76A2.91,2.91,0,0,0,72.36,456.94Z" style="fill: rgb(38, 50, 56); transform-origin: 74.7489px 457.586px;" id="elw7r4u2lvaaj" class="animable"></path><path d="M72.73,447.41a26.14,26.14,0,0,1,3.93.42,25.43,25.43,0,0,1,3.65,1.54,5.85,5.85,0,0,0-3.5-2.09A5.82,5.82,0,0,0,72.73,447.41Z" style="fill: rgb(38, 50, 56); transform-origin: 76.52px 448.171px;" id="elk2h89nij7tg" class="animable"></path><path d="M77,440.72c0,.17,1.47.53,3,1.57s2.48,2.27,2.62,2.17a5.16,5.16,0,0,0-2.31-2.65A5.23,5.23,0,0,0,77,440.72Z" style="fill: rgb(38, 50, 56); transform-origin: 79.81px 442.592px;" id="elw0k4u21ye3n" class="animable"></path><path d="M81.45,434.54a13,13,0,0,1,3.19,1.54,12.67,12.67,0,0,1,2.28,2.72c.07,0,0-.45-.25-1.08A5.82,5.82,0,0,0,85,435.63a5.65,5.65,0,0,0-2.44-1.11C81.88,434.4,81.45,434.47,81.45,434.54Z" style="fill: rgb(38, 50, 56); transform-origin: 84.1978px 436.628px;" id="elsm6h68i0qvg" class="animable"></path><path d="M85.46,434.88s.28-.23.6-.77a6.74,6.74,0,0,0,.88-2.55,3,3,0,0,0-.2-1.93,1.06,1.06,0,0,0-1.12-.51,1.74,1.74,0,0,0-1,.71,3.77,3.77,0,0,0,.63,4.75,4.36,4.36,0,0,0,4.81.67,1.56,1.56,0,0,0,.8-1,1.06,1.06,0,0,0-.57-1.1,3.8,3.8,0,0,0-1.9-.28,7.88,7.88,0,0,0-2.62.59c-.59.25-.87.47-.85.5a11.76,11.76,0,0,1,3.48-.69,3.58,3.58,0,0,1,1.65.29.56.56,0,0,1,.31.6,1.05,1.05,0,0,1-.56.61,3.89,3.89,0,0,1-4.16-.63,3.27,3.27,0,0,1-.59-4,1.22,1.22,0,0,1,.69-.52.59.59,0,0,1,.62.27,2.78,2.78,0,0,1,.2,1.64A10.15,10.15,0,0,1,85.46,434.88Z" style="fill: rgb(38, 50, 56); transform-origin: 87.4609px 432.395px;" id="elr6ue6qa3add" class="animable"></path><path d="M114.47,434.67l1.6,21.12s-21,7.17-21,11.11l41.09-.1-1.14-33Z" style="fill: rgb(255, 114, 94); transform-origin: 115.615px 450.35px;" id="elehznw6ipbg4" class="animable"></path><g id="ele35oog1e74d"><g style="opacity: 0.6; transform-origin: 128.351px 455.054px;" class="animable"><path d="M128.69,453.5a1.68,1.68,0,0,1,1.23,1.87,1.61,1.61,0,0,1-1.84,1.24,1.76,1.76,0,0,1-1.29-2,1.66,1.66,0,0,1,2-1.08" style="fill: rgb(255, 255, 255); transform-origin: 128.351px 455.054px;" id="el14ovvzc28ra" class="animable"></path></g></g><g id="eli3rg31gye88"><g style="opacity: 0.6; transform-origin: 115.465px 465.36px;" class="animable"><path d="M136.11,466.8l-.12-3.32L96.32,465a2.82,2.82,0,0,0-1.5,2.24Z" style="fill: rgb(255, 255, 255); transform-origin: 115.465px 465.36px;" id="elki5z7us0pk" class="animable"></path></g></g><path d="M115.39,455.6c0,.2,1,.26,2,.86s1.57,1.43,1.75,1.34-.17-1.23-1.4-1.94S115.34,455.42,115.39,455.6Z" style="fill: rgb(38, 50, 56); transform-origin: 117.286px 456.601px;" id="eljvdhlstn64" class="animable"></path><path d="M111.16,457.56c0,.19.84.5,1.56,1.32s.94,1.71,1.14,1.69.28-1.15-.62-2.16S111.16,457.37,111.16,457.56Z" style="fill: rgb(38, 50, 56); transform-origin: 112.575px 459.02px;" id="elkqsu4r2q3tg" class="animable"></path><path d="M108.92,462.81c.18,0,.42-1-.14-2.06s-1.51-1.47-1.59-1.3.53.73,1,1.62S108.72,462.79,108.92,462.81Z" style="fill: rgb(38, 50, 56); transform-origin: 108.156px 461.111px;" id="elvh9s33qkby" class="animable"></path><path d="M115.56,450.75c.09.18,1-.13,2.14-.1s2,.35,2.13.18-.78-.86-2.12-.88S115.46,450.6,115.56,450.75Z" style="fill: rgb(38, 50, 56); transform-origin: 117.697px 450.415px;" id="elgp2h1mle73f" class="animable"></path><g id="elusk8b1miw7"><g style="opacity: 0.3; transform-origin: 125.015px 440.43px;" class="animable"><polygon points="114.79 438.86 115.07 442.62 135.24 441.63 135.13 438.24 114.79 438.86" id="elm7mgve9ez0q" class="animable" style="transform-origin: 125.015px 440.43px;"></polygon></g></g><path d="M115.32,446.49a3.91,3.91,0,0,0,2.05-.1,9.36,9.36,0,0,0,2.13-.74,8.65,8.65,0,0,0,1.15-.68,2.4,2.4,0,0,0,.61-.5.88.88,0,0,0,0-1.07,1.11,1.11,0,0,0-.89-.43,3.21,3.21,0,0,0-.77.14,7.86,7.86,0,0,0-1.26.49,7.27,7.27,0,0,0-1.85,1.32c-.91.92-1.21,1.68-1.14,1.72s.53-.59,1.47-1.35a8.57,8.57,0,0,1,1.8-1.11,7.92,7.92,0,0,1,1.16-.41c.43-.13.8-.15.92,0s.05.1,0,.23a2,2,0,0,1-.45.37,12.41,12.41,0,0,1-1.06.67,11.8,11.8,0,0,1-2,.84A12.72,12.72,0,0,0,115.32,446.49Z" style="fill: rgb(38, 50, 56); transform-origin: 118.381px 444.806px;" id="elprrhq57b58" class="animable"></path><path d="M115.59,446.76a3.26,3.26,0,0,0,.46-2,6.63,6.63,0,0,0-.37-2.24,6.47,6.47,0,0,0-.57-1.23,1.7,1.7,0,0,0-1.35-1,1,1,0,0,0-.84.61,3,3,0,0,0-.18.76,4.56,4.56,0,0,0,.05,1.39,4.84,4.84,0,0,0,1,2.09c.84,1,1.69,1.23,1.7,1.17s-.65-.47-1.3-1.46a4.71,4.71,0,0,1-.73-1.91,4,4,0,0,1,0-1.19c0-.44.2-.8.36-.76s.57.3.75.65a7,7,0,0,1,.55,1.09,7.19,7.19,0,0,1,.48,2C115.66,446,115.48,446.74,115.59,446.76Z" style="fill: rgb(38, 50, 56); transform-origin: 114.387px 443.525px;" id="elhwo577wxr3o" class="animable"></path><path d="M101.17,254.05s-9.66,18.54-9.66,33.56c0,3.17,18.33,153.25,18.33,153.25l27.77-2.33L125.43,300.41l4.36-29.56Z" style="fill: rgb(38, 50, 56); transform-origin: 114.56px 347.455px;" id="elqnr7slk8wy" class="animable"></path><path d="M163,270.48s-6.49,54.2-9.54,75.09c-3.18,21.85-9.45,26-9.45,26L93.84,435.78,74.18,418.07l44-64.25s12.06-85.08,11.64-83S163,270.48,163,270.48Z" style="fill: rgb(38, 50, 56); transform-origin: 118.59px 353.13px;" id="elzfnfhzpiux" class="animable"></path><path d="M143,372.46a3.71,3.71,0,0,1-.47.67L141.14,375l-5.27,6.78c-4.43,5.81-10.5,13.75-17.21,22.53s-12.82,16.76-17.34,22.43c-2.26,2.85-4.11,5.12-5.42,6.68l-1.51,1.78a6.36,6.36,0,0,1-.55.6,3.91,3.91,0,0,1,.46-.67l1.43-1.85,5.28-6.78c4.43-5.81,10.5-13.75,17.21-22.53s12.82-16.76,17.34-22.43c2.26-2.85,4.11-5.12,5.41-6.68l1.52-1.78A5,5,0,0,1,143,372.46Z" style="fill: rgb(69, 90, 100); transform-origin: 118.42px 404.13px;" id="el8fs9y3xh69d" class="animable"></path><path d="M114.68,162.44s-9.71,5.83-12.63,11-18.44,43-17.8,49.19,15.21,10,15.21,10l15.22-19.74-9.07-6.15,9.07-11.33Z" style="fill: rgb(255, 114, 94); transform-origin: 99.4554px 197.535px;" id="eld9v4mmecu6t" class="animable"></path><path d="M130.36,157.41l-15.68,5s-7.12,67.64-10.68,77.35a94.46,94.46,0,0,0-4.54,21s2,18.91,24,21.5S163,271.87,163,271.87,176.17,238.5,180.05,210s1.2-44.73,1.2-44.73l-24.12-8.66Z" style="fill: rgb(255, 114, 94); transform-origin: 140.806px 219.606px;" id="el18j96iu5qd2" class="animable"></path><path d="M176.82,167.3c-.68.7-10.36,7.12-13.6,18.12s-6.79,22.33-6.79,22.33l-12.63,1.62,7.12,29.13s15.22-1.62,23.63-15.54,13.59-31.07,13.59-31.07S187.07,156.63,176.82,167.3Z" style="fill: rgb(255, 114, 94); transform-origin: 165.97px 201.894px;" id="elqdipbp4xonf" class="animable"></path><path d="M99.46,232.67s35.26,7.05,48.05-8.13l-3.71-12.88s-23.29,5.51-30.57,3.14Z" style="fill: rgb(255, 190, 157); transform-origin: 123.485px 222.982px;" id="el1crlmo16x52" class="animable"></path><path d="M148.13,208.82s5.37-12,6.08-12.15,11-3.79,11-3.79a3.71,3.71,0,0,1,0,2.61L169,196s-.56,2.29-1.82,2.61l1.34,1.18a7.42,7.42,0,0,1-2.53,2.14,2.72,2.72,0,0,1-2.44,0s.47.86-1.66,2.2-5.77,3.32-5.77,3.32Z" style="fill: rgb(255, 190, 157); transform-origin: 158.565px 200.85px;" id="el8lmdw7lwr9g" class="animable"></path><path d="M148.09,208.85l0,0c.22-.49,5.38-12,6.09-12.16s11-3.75,11.06-3.78h0v0a3.85,3.85,0,0,1,0,2.59l3.71.48v0c0,.09-.56,2.25-1.79,2.61l1.33,1.17,0,0a7.6,7.6,0,0,1-2.54,2.15,2.88,2.88,0,0,1-2.4,0c.06.23.11,1-1.7,2.17-2.11,1.32-5.73,3.3-5.76,3.31h0Zm17.16-15.93c-.57.2-10.35,3.62-11,3.78s-4.17,7.93-6,12.08l7.91-1.39c.14-.08,3.69-2,5.76-3.32s1.66-2.16,1.65-2.16l0-.09.08.05a2.74,2.74,0,0,0,2.42,0,7.55,7.55,0,0,0,2.51-2.12l-1.37-1.2h.05c1.16-.29,1.72-2.29,1.79-2.56l-3.72-.47,0,0A3.71,3.71,0,0,0,165.25,192.92Z" style="fill: rgb(235, 153, 110); transform-origin: 158.57px 200.88px;" id="elduoc72a6w4k" class="animable"></path><path d="M164.94,195.53a47,47,0,0,1-6.78,2.64c-.94.34-1.88.6-2.62,1a3.52,3.52,0,0,0-1.55,1.47c-.61,1.12-.84,1.92-.94,1.89a4.88,4.88,0,0,1,.59-2.08,3.82,3.82,0,0,1,1.66-1.74,21,21,0,0,1,2.68-1A46.94,46.94,0,0,1,164.94,195.53Z" style="fill: rgb(235, 153, 110); transform-origin: 158.995px 199.03px;" id="elpjsegpwws6s" class="animable"></path><path d="M167.35,198.57a5.34,5.34,0,0,1-1.87.68c-1.19.32-2.86.59-4.63,1.07a12.1,12.1,0,0,0-4.2,2c-.94.73-1.36,1.37-1.43,1.32s.25-.77,1.18-1.62a10.31,10.31,0,0,1,4.3-2.21c1.82-.49,3.5-.7,4.69-.92A10.88,10.88,0,0,1,167.35,198.57Z" style="fill: rgb(235, 153, 110); transform-origin: 161.28px 201.106px;" id="elv15ulhvz55k" class="animable"></path><path d="M157.86,204a4.52,4.52,0,0,1,2.49-1.68,4.39,4.39,0,0,1,3-.27c0,.17-1.31.26-2.8.8S158,204.16,157.86,204Z" style="fill: rgb(235, 153, 110); transform-origin: 160.605px 202.962px;" id="elvg2awuw66j9" class="animable"></path><path d="M144.89,212.49l-29.55-8.26-8.79,9.59s30.06,23.56,43.8,23.18" style="fill: rgb(255, 190, 157); transform-origin: 128.45px 220.617px;" id="el1ijyy9sgxm9" class="animable"></path><path d="M150.35,237a13.37,13.37,0,0,1-3.69-.26,41.7,41.7,0,0,1-9.52-3.25C129.38,230,119.36,223.74,109,216l-2.58-2-.24-.18.21-.23,8.81-9.58.11-.12.16,0,21.22,6,6.08,1.78,1.62.49a4.47,4.47,0,0,1,.55.2,2.27,2.27,0,0,1-.58-.11l-1.63-.41-6.13-1.64-21.28-5.84.27-.08-8.79,9.6,0-.41,2.57,2c10.38,7.72,20.34,14,28,17.58a44.35,44.35,0,0,0,9.41,3.39,14.22,14.22,0,0,0,1.54.28,9.58,9.58,0,0,0,1.15.12A7.21,7.21,0,0,1,150.35,237Z" style="fill: rgb(235, 153, 110); transform-origin: 128.265px 220.461px;" id="eltpt2rtt4gne" class="animable"></path><path d="M164.22,178.82a9.47,9.47,0,0,1-.43,2.35c-.33,1.44-.83,3.41-1.42,5.58s-1.15,4.13-1.58,5.53a10.36,10.36,0,0,1-.81,2.25,9.47,9.47,0,0,1,.43-2.35c.33-1.44.83-3.41,1.42-5.58s1.15-4.12,1.58-5.53A10.64,10.64,0,0,1,164.22,178.82Z" style="fill: rgb(38, 50, 56); transform-origin: 162.1px 186.675px;" id="eltngpcn9218d" class="animable"></path><path d="M162.85,218.35c-.1,0-.38-1.46-1.12-3.74a11.93,11.93,0,0,0-1.91-3.68,6.77,6.77,0,0,0-4.12-2.6,15.53,15.53,0,0,0-5,.58l-4.16.82a6.49,6.49,0,0,0-1.53.4,1.37,1.37,0,0,0-.77.79,1.21,1.21,0,0,0,0,1s-.44-.27-.25-1a1.64,1.64,0,0,1,.83-1,6.45,6.45,0,0,1,1.59-.51l4.15-.94a15.4,15.4,0,0,1,5.23-.63,7.2,7.2,0,0,1,4.45,2.84,11.67,11.67,0,0,1,1.88,3.88,23.58,23.58,0,0,1,.63,2.81A3.59,3.59,0,0,1,162.85,218.35Z" style="fill: rgb(38, 50, 56); transform-origin: 153.397px 213.085px;" id="el6oot9aokebs" class="animable"></path><path d="M167.18,212a13.28,13.28,0,0,0-3.44-4c-2.4-1.69-4.89-2-4.85-2.13a3.43,3.43,0,0,1,1.61.11,10,10,0,0,1,3.57,1.56,8.51,8.51,0,0,1,2.6,2.9A3.19,3.19,0,0,1,167.18,212Z" style="fill: rgb(38, 50, 56); transform-origin: 163.035px 208.91px;" id="elvkjdxmdk6l8" class="animable"></path><path d="M188.14,191.89a2.55,2.55,0,0,1-.17.62c-.15.46-.35,1-.58,1.75-.55,1.58-1.29,3.74-2.2,6.39s-2.05,5.92-3.62,9.37-3.44,7.15-5.68,10.92a37.28,37.28,0,0,1-7.93,9.41,33.51,33.51,0,0,1-8.53,5.33,25.69,25.69,0,0,1-6.53,1.83,17.19,17.19,0,0,1-1.84.17,2.6,2.6,0,0,1-.64,0c0-.06.88-.1,2.44-.38a28.13,28.13,0,0,0,6.41-2,36.41,36.41,0,0,0,16.14-14.67c2.21-3.71,4-7.47,5.69-10.84s2.72-6.61,3.71-9.28,1.79-4.85,2.37-6.34l.69-1.71A3.18,3.18,0,0,1,188.14,191.89Z" style="fill: rgb(38, 50, 56); transform-origin: 169.28px 214.795px;" id="elp5nnitsspw" class="animable"></path><path d="M179,168.06c.06.16-2.43,1-5.2,2.69s-4.76,3.38-4.87,3.26A19.66,19.66,0,0,1,179,168.06Z" style="fill: rgb(38, 50, 56); transform-origin: 173.966px 171.038px;" id="el9wf8t5o73za" class="animable"></path><path d="M113.52,192.46a27.18,27.18,0,0,1,.87-5.49,28,28,0,0,1,1.41-5.38,26.71,26.71,0,0,1-.86,5.49A27.55,27.55,0,0,1,113.52,192.46Z" style="fill: rgb(38, 50, 56); transform-origin: 114.66px 187.025px;" id="eluewuhzfass" class="animable"></path><path d="M154.87,245.39a14,14,0,0,1-1.63.82c-.53.25-1.19.55-2,.85s-1.65.68-2.65,1a64.91,64.91,0,0,1-7.1,2.05,66.37,66.37,0,0,1-18,1.59,63.73,63.73,0,0,1-7.34-.78c-1.05-.14-2-.36-2.79-.53s-1.52-.33-2.09-.49a11.36,11.36,0,0,1-1.75-.52,10.39,10.39,0,0,1,1.8.31c.57.12,1.27.27,2.1.39s1.75.33,2.79.45c2.06.3,4.55.53,7.31.65a70.52,70.52,0,0,0,17.86-1.58,73.29,73.29,0,0,0,7.08-1.92c1-.3,1.88-.65,2.67-.93s1.45-.53,2-.75A9.7,9.7,0,0,1,154.87,245.39Z" style="fill: rgb(38, 50, 56); transform-origin: 132.195px 248.584px;" id="elmapyk6rmqin" class="animable"></path><path d="M129,261.92a28.15,28.15,0,0,1-6.44-1.61,27.86,27.86,0,0,1-6.12-2.58c.06-.15,2.83.9,6.29,2A66,66,0,0,1,129,261.92Z" style="fill: rgb(38, 50, 56); transform-origin: 122.72px 259.818px;" id="elnutud0ugakp" class="animable"></path><g id="el0fhdveujyokt"><g style="opacity: 0.3; transform-origin: 134.74px 237.205px;" class="animable"><path d="M141.25,235.28c-2.08-.88-4.09-2.07-6.32-2.41-2.72-.41-5,.4-7.72.82-8.1,1.27-14.15.31-21.79,0L105,236c3.36,2.62,7.6,3.46,11.86,3.38,3.87-.07,7.67-1.33,11.54-1.22a39,39,0,0,1,8.95,1.8c4.93,1.31,10.1,2.22,15.13,1.35s9.93-3.81,12-8.45A24.76,24.76,0,0,1,141.25,235.28Z" id="elsealslsf41s" class="animable" style="transform-origin: 134.74px 237.205px;"></path></g></g><g id="el1tn4i7v1zpkj"><g style="opacity: 0.3; transform-origin: 128.665px 263.743px;" class="animable"><path d="M117.33,258.81a20.44,20.44,0,0,0,15.5,9.79,10.08,10.08,0,0,0,4.09-.34,5.12,5.12,0,0,0,3.08-2.57,14.15,14.15,0,0,0-4.81-2l-17.67-4.86" id="elwy6obg0cku8" class="animable" style="transform-origin: 128.665px 263.743px;"></path></g></g><path d="M107.8,213.59,96.41,214c-1.14,0-2.21-1-2.69-2.63l-8.66-29.27c-.83-2.79.37-5.9,2.32-6l16.39-1c1.24-.07,2.39,1.13,2.82,3l5.87,24.75C113.71,208,111.36,213.46,107.8,213.59Z" style="fill: rgb(69, 90, 100); transform-origin: 98.7963px 194.549px;" id="elcishhfh0f6d" class="animable"></path><path d="M99.78,201.33c-1.28,1.32-8.42-4.48-10.53-4.05s-3.38,1.65-2.21,2.55,4.12,3.84,4.58,5.08c0,0,.22-5.19-.34-4.35s-1.5,2.18-.14,2.77-.74,5.16.27,5.73a24.92,24.92,0,0,0,5.26,1.83,57.47,57.47,0,0,1,5.49,2,12.14,12.14,0,0,0,8.62.2l1.43-.5a5.51,5.51,0,0,0,3.69-5.25l-.05-4.73,1.7-3.82-3-6.42-5-1.66,1.92,5.95c-2,1-5.28,1.61-7,.68s-8.3-7.51-9.55-6.88-2.36,2.14-1.22,3.58,7.34,5.92,6.06,7.25" style="fill: rgb(255, 190, 157); transform-origin: 102.072px 202.101px;" id="ele7q6z2kjybs" class="animable"></path><path d="M74.33,417.77a2,2,0,0,1,.17-.3c.14-.21.32-.5.56-.85l2.17-3.25,8.06-11.91L112,362.29l5.9-8.61,0,.12c1.33-16,2.51-30.09,3.35-40.23.44-5,.8-9.08,1-11.9.13-1.37.23-2.44.3-3.2,0-.35.07-.62.09-.83a.87.87,0,0,1,0-.28,1,1,0,0,1,0,.28c0,.21,0,.49,0,.83-.06.77-.13,1.84-.22,3.21-.21,2.83-.51,6.88-.89,11.91-.8,10.15-1.92,24.25-3.18,40.26v.06l0,.06-5.9,8.61c-10.49,15.25-20,29.06-26.88,39.09l-8.2,11.81-2.25,3.2-.59.82C74.41,417.69,74.34,417.78,74.33,417.77Z" style="fill: rgb(69, 90, 100); transform-origin: 98.4899px 357.565px;" id="elcoq537uqdsw" class="animable"></path><path d="M132.94,289.34c.08.13-2.46,1.72-5.27,4.09s-4.81,4.58-4.93,4.48a6.34,6.34,0,0,1,1.19-1.58,33.76,33.76,0,0,1,7.25-6.09A6.17,6.17,0,0,1,132.94,289.34Z" style="fill: rgb(69, 90, 100); transform-origin: 127.841px 293.627px;" id="elrgs8qc6xhn" class="animable"></path><path d="M123,297.58a5.93,5.93,0,0,1-3.18-1.1,5.8,5.8,0,0,1-2.43-2.31c.11-.11,1.16.94,2.7,1.87S123,297.43,123,297.58Z" style="fill: rgb(69, 90, 100); transform-origin: 120.195px 295.871px;" id="el5o5n5rl4cv7" class="animable"></path><path d="M160.82,284.9c0,.15-2.74-.18-6.11-.37s-6.1-.17-6.11-.32a24.29,24.29,0,0,1,6.14-.2A23.93,23.93,0,0,1,160.82,284.9Z" style="fill: rgb(69, 90, 100); transform-origin: 154.71px 284.42px;" id="eltw5xpkqs7vf" class="animable"></path><path d="M102.33,273s-.38.29-1.12.47a7.44,7.44,0,0,1-2.95.07,7.25,7.25,0,0,1-2.73-1.09c-.63-.42-.94-.78-.89-.83a16.26,16.26,0,0,0,3.72,1.41A16.62,16.62,0,0,0,102.33,273Z" style="fill: rgb(69, 90, 100); transform-origin: 98.4824px 272.637px;" id="elvvjj0otps5" class="animable"></path><path d="M185.66,189.2a3.36,3.36,0,0,1-.8.47,15.47,15.47,0,0,1-2.35.94,21.9,21.9,0,0,1-3.66.84,25.59,25.59,0,0,1-4.61.15,24.34,24.34,0,0,1-4.54-.8,21.58,21.58,0,0,1-3.51-1.34A16,16,0,0,1,164,188.2a3.19,3.19,0,0,1-.73-.57c.06-.08,1.15.65,3.08,1.5a24.85,24.85,0,0,0,3.48,1.21,27.35,27.35,0,0,0,4.45.74,26.59,26.59,0,0,0,4.51-.11,24,24,0,0,0,3.61-.71C184.43,189.69,185.62,189.11,185.66,189.2Z" style="fill: rgb(255, 255, 255); transform-origin: 174.465px 189.633px;" id="el3pq3wkdgg8x" class="animable"></path><path d="M108,184.64a23,23,0,0,1,2.87.28,24.84,24.84,0,0,1,2.89.12,7.23,7.23,0,0,1-5.76-.4Z" style="fill: rgb(255, 255, 255); transform-origin: 110.88px 185.049px;" id="elodereh0t2po" class="animable"></path><path d="M162.2,184.36c0,.15-10.63,1.19-23.77,2.34s-23.82,2-23.83,1.81,10.63-1.19,23.78-2.33S162.19,184.22,162.2,184.36Z" style="fill: rgb(255, 255, 255); transform-origin: 138.4px 186.441px;" id="elw2sv2klxn1" class="animable"></path><path d="M154.87,160.91h0a6.07,6.07,0,0,0,.67-3l-1.2-38.88c.46-10.82-5.45-20.11-16.29-20.27l-1,0a19.37,19.37,0,0,0-18.51,18.64c-.35,9.38-.62,19.75-.34,24.76.58,10.38,11,11.54,11,11.54l.34,4.05s-.81,7,7.33,9.4c6.25,1.84,13.11-2.1,16-4A6,6,0,0,0,154.87,160.91Z" style="fill: rgb(255, 190, 157); transform-origin: 136.814px 133.194px;" id="ely57cb47n7kb" class="animable"></path><path d="M129.15,153.77a25.26,25.26,0,0,0,13.44-4.57s-2.88,7.61-13.28,7.13Z" style="fill: rgb(235, 153, 110); transform-origin: 135.87px 152.776px;" id="eliqgel48zimr" class="animable"></path><path d="M124.33,125.87a1.47,1.47,0,0,0,1.49,1.43,1.41,1.41,0,0,0,1.47-1.4,1.48,1.48,0,0,0-1.49-1.44A1.43,1.43,0,0,0,124.33,125.87Z" style="fill: rgb(38, 50, 56); transform-origin: 125.81px 125.88px;" id="el63im5a76r4u" class="animable"></path><path d="M121,122.46c.19.19,1.28-.69,2.87-.76s2.81.68,3,.48-.12-.43-.65-.78a4,4,0,0,0-2.38-.62,3.87,3.87,0,0,0-2.28.84C121.05,122,120.89,122.38,121,122.46Z" style="fill: rgb(38, 50, 56); transform-origin: 123.947px 121.63px;" id="el5a8es1w6rqv" class="animable"></path><path d="M139.78,125.87a1.47,1.47,0,0,0,1.49,1.43,1.41,1.41,0,0,0,1.47-1.4,1.47,1.47,0,0,0-1.49-1.43A1.41,1.41,0,0,0,139.78,125.87Z" style="fill: rgb(38, 50, 56); transform-origin: 141.26px 125.885px;" id="elc4ci39m5oh" class="animable"></path><path d="M136.69,122.08c.19.18,1.28-.7,2.88-.76s2.8.68,3,.48-.12-.44-.65-.78a4,4,0,0,0-2.38-.63,3.92,3.92,0,0,0-2.28.85C136.75,121.64,136.6,122,136.69,122.08Z" style="fill: rgb(38, 50, 56); transform-origin: 139.648px 121.244px;" id="elbbefxrij3sr" class="animable"></path><path d="M131.41,134.16a10.33,10.33,0,0,0-2.61-.35c-.41,0-.8-.09-.88-.37a2,2,0,0,1,.22-1.21l1.07-3.16c1.48-4.49,2.54-8.18,2.35-8.24s-1.53,3.54-3,8c-.35,1.11-.69,2.16-1,3.17a2.42,2.42,0,0,0-.14,1.61,1,1,0,0,0,.7.57,2.48,2.48,0,0,0,.69.06A10.25,10.25,0,0,0,131.41,134.16Z" style="fill: rgb(38, 50, 56); transform-origin: 129.462px 127.558px;" id="elw6mq1y3mpzr" class="animable"></path><path d="M136,115.84c.17.43,1.76.15,3.64.3s3.42.59,3.65.19c.1-.2-.18-.59-.81-1a6,6,0,0,0-2.73-.82,6.09,6.09,0,0,0-2.82.45C136.26,115.28,135.93,115.64,136,115.84Z" style="fill: rgb(38, 50, 56); transform-origin: 139.65px 115.493px;" id="eliyopzig0c3i" class="animable"></path><path d="M121.38,117.82c.29.35,1.37-.08,2.7-.15s2.45.13,2.69-.26c.1-.19-.09-.54-.59-.86a3.74,3.74,0,0,0-2.22-.5,3.79,3.79,0,0,0-2.13.82C121.38,117.26,121.24,117.64,121.38,117.82Z" style="fill: rgb(38, 50, 56); transform-origin: 124.062px 116.996px;" id="el0sx8k4fkaix" class="animable"></path><path d="M153.11,129.26a2.82,2.82,0,0,1,2.93-2.85c1.94.1,4.14,1.1,4.19,5.11.08,7.11-7.07,5.73-7.09,5.52S153.12,132.23,153.11,129.26Z" style="fill: rgb(255, 190, 157); transform-origin: 156.67px 131.846px;" id="elypczinatohc" class="animable"></path><path d="M154.66,134.35s.12.09.33.18a1.27,1.27,0,0,0,.93,0,3.08,3.08,0,0,0,1.39-2.77,4.18,4.18,0,0,0-.37-1.77,1.41,1.41,0,0,0-.94-.94.63.63,0,0,0-.73.35c-.09.2-.05.34-.08.35s-.16-.11-.1-.41a.78.78,0,0,1,.27-.45,1,1,0,0,1,.68-.19,1.76,1.76,0,0,1,1.31,1.09,4.22,4.22,0,0,1,.45,2c0,1.43-.74,2.78-1.77,3.09a1.28,1.28,0,0,1-1.13-.18C154.67,134.52,154.63,134.36,154.66,134.35Z" style="fill: rgb(235, 153, 110); transform-origin: 156.226px 131.818px;" id="el636pk5lpqnn" class="animable"></path><path d="M118.55,117.18c-.1,1.44-1.94-3.42-1.2-4.66a3.75,3.75,0,1,1-1-7.36,3.36,3.36,0,0,1,.62-4.07,4.94,4.94,0,0,1,2.1-.82,5.1,5.1,0,0,1,.6-2.53,6.29,6.29,0,0,1,9.77-1.83,6.25,6.25,0,0,1,10.3.34,5.93,5.93,0,0,1,8.66,3,4.64,4.64,0,0,1,5.52.85,18.56,18.56,0,0,0,1.58,1.94,15.12,15.12,0,0,0,2.58,1.28,5,5,0,0,1,1.16,7.6,11.51,11.51,0,0,1,2.65,2.7,4,4,0,0,1,.48,3.62c-.6,1.4-2.19,2.17-2.78,3.58-.27.64-.3,1.37-.56,2a4.07,4.07,0,0,1-2.49,2.22c-.67,2.86-2.67,3.64-2.73,4.48-.58,8.84-4.22,3.71-6.05-14.93-.43-4.38,1.17-6.61-2.28-9.3a20.43,20.43,0,0,0-1.27,1.74,5.89,5.89,0,0,1-8.72.31,5,5,0,0,1-8.08.81c-1.28,1.14-4.25,3.07-6.5,1A19,19,0,0,0,118.55,117.18Z" style="fill: rgb(38, 50, 56); transform-origin: 137.593px 113.548px;" id="el3vq9014bfui" class="animable"></path><path d="M131,137.74a7.42,7.42,0,0,0,.95,1.86,2.47,2.47,0,0,0,1.76,1,2.19,2.19,0,0,0,1.88-1,3.55,3.55,0,0,0,.53-2.14c0-.67-.34-1.48-1-1.56a1.77,1.77,0,0,0-.81.18l-3.53,1.43" style="fill: rgb(235, 153, 110); transform-origin: 133.455px 138.25px;" id="elkkxa5ny3d8i" class="animable"></path><path d="M132.38,140.64a5.38,5.38,0,0,0,1.88-.24,2.7,2.7,0,0,0,1.42-1.29,2.82,2.82,0,0,0,0-2.3,2.54,2.54,0,0,0-.31-.53c-.13-.14-.11-.14-.26-.11a4.32,4.32,0,0,0-.57.22l-.57.23c-.76.31-1.44.57-2,.79a6.5,6.5,0,0,1-1.91.58,6.29,6.29,0,0,1,1.74-1c.55-.27,1.22-.58,2-.91l.57-.25a5.15,5.15,0,0,1,.64-.27.78.78,0,0,1,.52,0,.9.9,0,0,1,.39.3,3,3,0,0,1,.4.67,3.33,3.33,0,0,1-.11,2.82,3,3,0,0,1-1.79,1.44,2.76,2.76,0,0,1-1.52.06C132.53,140.79,132.36,140.67,132.38,140.64Z" style="fill: rgb(38, 50, 56); transform-origin: 133.321px 138.222px;" id="elhzx3oaej2cm" class="animable"></path></g><g id="freepik--speech-bubble--inject-2" class="animable" style="transform-origin: 69.1703px 105.051px;"><path d="M102.79,134.23,95.9,122.08a32.59,32.59,0,1,0-7.8,8.67v0Z" style="fill: rgb(250, 250, 250); transform-origin: 69.1814px 104.97px;" id="elqswxwpqlmz" class="animable"></path><path d="M102.79,134.23l-14.73-3.36-.15,0,.1-.12v0l.14.14a32.83,32.83,0,0,1-6.69,4,32.48,32.48,0,0,1-8.91,2.55,29,29,0,0,1-5.15.26c-.88,0-1.79-.07-2.69-.15L62,137.11a32.84,32.84,0,0,1-20.32-13.05,32.32,32.32,0,0,1-5.49-12.56A33.07,33.07,0,0,1,36.54,97a32,32,0,0,1,7-13.37l1.33-1.46c.43-.49.95-.9,1.43-1.35s.94-.91,1.47-1.29l1.56-1.16a13.34,13.34,0,0,1,1.62-1.07l1.65-1,1.72-.84A16.08,16.08,0,0,1,56,74.72a33.21,33.21,0,0,1,14.57-2.23,31.93,31.93,0,0,1,13.38,4,33,33,0,0,1,15.43,19A35.25,35.25,0,0,1,100.83,106a31.94,31.94,0,0,1-1.59,9.13,33.27,33.27,0,0,1-3.26,7V122l6.81,12.2-7-12.1,0,0,0,0a32.46,32.46,0,0,0,3.2-7,32,32,0,0,0,1.54-9.06,35,35,0,0,0-1.43-10.48A32.7,32.7,0,0,0,83.81,76.76a31.83,31.83,0,0,0-13.23-3.89,32.89,32.89,0,0,0-14.4,2.22,15.56,15.56,0,0,0-1.72.77l-1.7.83-1.63,1a14.22,14.22,0,0,0-1.6,1L48,79.89c-.52.37-1,.85-1.45,1.27s-1,.84-1.42,1.33l-1.31,1.44a31.62,31.62,0,0,0-6.88,13.21,32.75,32.75,0,0,0-.39,14.29A32.06,32.06,0,0,0,42,123.85,32.59,32.59,0,0,0,62,136.8l2.72.41c.9.08,1.79.11,2.67.16a29.52,29.52,0,0,0,5.1-.24,32.31,32.31,0,0,0,8.86-2.49,33.31,33.31,0,0,0,6.66-4l.6-.46-.46.6v0l-.06-.16Z" style="fill: rgb(38, 50, 56); transform-origin: 69.1703px 105.063px;" id="eliz01tgp536" class="animable"></path><path d="M59.05,105.05a3.3,3.3,0,1,1-3.3-3.3A3.3,3.3,0,0,1,59.05,105.05Z" style="fill: rgb(38, 50, 56); transform-origin: 55.75px 105.05px;" id="eluwpz2olrqf" class="animable"></path><path d="M72.26,105.05a3.3,3.3,0,1,1-3.3-3.3A3.3,3.3,0,0,1,72.26,105.05Z" style="fill: rgb(38, 50, 56); transform-origin: 68.96px 105.05px;" id="eltdcgv3v9brs" class="animable"></path><path d="M85.44,103.4a3.3,3.3,0,1,1-4.51-1.21A3.3,3.3,0,0,1,85.44,103.4Z" style="fill: rgb(38, 50, 56); transform-origin: 82.5807px 105.047px;" id="elqrnsr33gctd" class="animable"></path></g><g id="freepik--Plant--inject-2" class="animable" style="transform-origin: 422.717px 347.455px;"><path d="M415.23,355.7V343.48c-15.24,0-12.69-9.42-12.69-40.78,0-21.54.67-33-7.94-33-8,0-9.86,5.58-9.86,30.09C384.74,345.2,390.8,355.7,415.23,355.7Z" style="fill: rgb(69, 90, 100); transform-origin: 399.985px 312.7px;" id="elat4g7wzlm97" class="animable"></path><path d="M431.13,393.51V381.3c15.25,0,12.7-9.43,12.7-40.79,0-21.54-.67-33,7.94-33,8,0,9.85,5.58,9.85,30.08C461.62,383,455.57,393.51,431.13,393.51Z" style="fill: rgb(69, 90, 100); transform-origin: 446.375px 350.51px;" id="el2merdkgjs4k" class="animable"></path><g id="el30i1nouhpw9"><g style="opacity: 0.3; transform-origin: 436.465px 387.08px;" class="animable"><polygon points="436.47 380.73 438.85 393.06 434.7 393.43 434.08 381.15 436.47 380.73" id="elknhxb3tadim" class="animable" style="transform-origin: 436.465px 387.08px;"></polygon></g></g><path d="M423.6,231c-12.07,0-11.18,15.79-11.18,35.13V420h22.36V266.17C434.78,246.83,435.67,231,423.6,231Z" style="fill: rgb(69, 90, 100); transform-origin: 423.6px 325.5px;" id="el9o6rb3y81sc" class="animable"></path><path d="M417.1,420.45s0-.16,0-.49,0-.83,0-1.44V413c0-4.84.08-11.81.13-20.4.16-17.25.39-41,.63-67.31s.6-50.06.8-67.31c.06-4.31.11-8.21.36-11.63a57,57,0,0,1,1.25-8.7,35.36,35.36,0,0,1,1.65-5.3c.22-.59.44-1,.57-1.33l.22-.44a3.71,3.71,0,0,1-.16.47c-.11.3-.32.74-.53,1.34a38.75,38.75,0,0,0-1.53,5.31,56.91,56.91,0,0,0-1.15,8.67c-.22,3.41-.25,7.31-.28,11.61-.16,17.25-.38,41-.63,67.32s-.59,50.05-.8,67.3c-.13,8.6-.23,15.56-.31,20.4,0,2.39-.08,4.25-.11,5.55,0,.61,0,1.09,0,1.44A3.57,3.57,0,0,1,417.1,420.45Z" style="fill: rgb(38, 50, 56); transform-origin: 419.905px 325.515px;" id="elr1qjcu94t5c" class="animable"></path><path d="M427.19,420.23s0-.17,0-.49,0-.83,0-1.44v-5.52c0-4.83.05-11.76.09-20.32.13-17.17.32-40.86.52-67s.51-49.85.68-67c.06-4.28.09-8.16-.06-11.56a73,73,0,0,0-.8-8.68,53.4,53.4,0,0,0-1.13-5.39c-.16-.59-.29-1.05-.38-1.39s-.12-.47-.12-.47a37.94,37.94,0,0,1,1.85,7.21,73.46,73.46,0,0,1,.9,8.71c.18,3.41.17,7.29.14,11.58-.13,17.17-.31,40.86-.51,67s-.51,49.84-.69,67c-.11,8.55-.2,15.49-.27,20.31,0,2.38-.08,4.23-.1,5.52,0,.61,0,1.09,0,1.44S427.19,420.23,427.19,420.23Z" style="fill: rgb(38, 50, 56); transform-origin: 427.444px 325.6px;" id="eliufc2r6si9o" class="animable"></path><path d="M435,393.31a68.34,68.34,0,0,1-.43-12.47,35.41,35.41,0,0,1,.5,6.23A36.14,36.14,0,0,1,435,393.31Z" style="fill: rgb(38, 50, 56); transform-origin: 434.816px 387.075px;" id="elw1ogw90hzm" class="animable"></path><path d="M452.37,307.68s0,.31.06.88,0,1.47.06,2.53c0,2.25.06,5.41.11,9.29,0,7.9.1,18.71.17,30.65,0,6,0,11.74-1.07,16.87A27.68,27.68,0,0,1,446,380.42a19,19,0,0,1-7.39,5.61,12,12,0,0,1-3.29.9,29.88,29.88,0,0,0,3.21-1.1,19.36,19.36,0,0,0,7.15-5.66,27.62,27.62,0,0,0,5.49-12.37c1-5.07,1.05-10.78,1-16.76V320.38c0-3.88.05-7,.06-9.29,0-1,0-1.9.05-2.53A5.14,5.14,0,0,1,452.37,307.68Z" style="fill: rgb(38, 50, 56); transform-origin: 444.045px 347.305px;" id="el51ty8rthorn" class="animable"></path><path d="M412.41,343a43.47,43.47,0,0,1,.28,7,43.39,43.39,0,0,1-.28,7,43.39,43.39,0,0,1-.28-7A43.47,43.47,0,0,1,412.41,343Z" style="fill: rgb(38, 50, 56); transform-origin: 412.41px 350px;" id="el7kqu2l4dlbl" class="animable"></path><path d="M394,269.74a4.77,4.77,0,0,1,0,.9c0,.64,0,1.49,0,2.57-.06,2.28-.16,5.5-.27,9.44-.23,8-.69,19-.54,31.15.15,6.08.1,11.91,1.36,17a28.81,28.81,0,0,0,5.89,12.44,17.48,17.48,0,0,0,7.62,5.24,22.31,22.31,0,0,0,3.36.73,10.41,10.41,0,0,1-3.43-.52,17.31,17.31,0,0,1-7.85-5.19c-2.73-3-4.87-7.43-6.1-12.58s-1.27-11.06-1.41-17.13c-.16-12.19.36-23.2.7-31.17.19-3.95.34-7.16.45-9.44.06-1.07.11-1.93.15-2.57A5.31,5.31,0,0,1,394,269.74Z" style="fill: rgb(38, 50, 56); transform-origin: 402.01px 309.476px;" id="eltlh2zkab85m" class="animable"></path><g id="elocync7ogb6k"><g style="opacity: 0.3; transform-origin: 410.905px 349.27px;" class="animable"><path d="M409.38,355.45l.45-12.55,2.6.44,0,12.3S409.83,355.49,409.38,355.45Z" id="el83c8pr1joi3" class="animable" style="transform-origin: 410.905px 349.27px;"></path></g></g><path d="M387.17,311.25a6.94,6.94,0,0,1-2.66.68,6.84,6.84,0,0,1-2.74.13,6.65,6.65,0,0,1,2.66-.69A6.72,6.72,0,0,1,387.17,311.25Z" style="fill: rgb(38, 50, 56); transform-origin: 384.47px 311.652px;" id="elruid28f0zl9" class="animable"></path><path d="M386.9,299.1a7.09,7.09,0,0,1-2.76-.27,6.89,6.89,0,0,1-2.64-.81,13.38,13.38,0,0,1,5.4,1.08Z" style="fill: rgb(38, 50, 56); transform-origin: 384.2px 298.577px;" id="elmmhi8d0zda" class="animable"></path><path d="M382,279.66a5.53,5.53,0,0,1,2.73,1.17c1.38.92,2.24,2,2.13,2.07a14.85,14.85,0,0,1-2.45-1.6A13.82,13.82,0,0,1,382,279.66Z" style="fill: rgb(38, 50, 56); transform-origin: 384.435px 281.28px;" id="elz7c2tm8x4hn" class="animable"></path><path d="M389.87,267.24a7.45,7.45,0,0,1,1.34,2.59,7.79,7.79,0,0,1,.82,2.81,15.32,15.32,0,0,1-2.16-5.4Z" style="fill: rgb(38, 50, 56); transform-origin: 390.95px 269.94px;" id="el821gmzsb3zn" class="animable"></path><path d="M401,268.07a12.06,12.06,0,0,1-1.5,3.37,12.28,12.28,0,0,1-2,3.11,12.13,12.13,0,0,1,1.51-3.38A12.31,12.31,0,0,1,401,268.07Z" style="fill: rgb(38, 50, 56); transform-origin: 399.25px 271.31px;" id="elxdhb2otv8qq" class="animable"></path><path d="M404.72,282.63a11.25,11.25,0,0,1-4.86,1.35,5.81,5.81,0,0,1,2.35-1A5.92,5.92,0,0,1,404.72,282.63Z" style="fill: rgb(38, 50, 56); transform-origin: 402.29px 283.296px;" id="elo0b0ogv429" class="animable"></path><path d="M398.51,298.29c-.12.1-.82-.48-1.56-1.3s-1.26-1.57-1.14-1.67.81.47,1.56,1.29S398.63,298.18,398.51,298.29Z" style="fill: rgb(38, 50, 56); transform-origin: 397.16px 296.805px;" id="el0rqoloco2wlp" class="animable"></path><path d="M403.61,314c-.11.11-1.1-.64-2.22-1.69s-1.93-2-1.82-2.1,1.1.64,2.21,1.69S403.72,313.86,403.61,314Z" style="fill: rgb(38, 50, 56); transform-origin: 401.59px 312.106px;" id="elkq3s90jmrf" class="animable"></path><path d="M388.52,320.7c.11.11-.77,1.11-2,2.23a8,8,0,0,1-2.35,1.82c-.11-.12.77-1.12,2-2.24S388.41,320.58,388.52,320.7Z" style="fill: rgb(38, 50, 56); transform-origin: 386.345px 322.719px;" id="ela45fnjdd35" class="animable"></path><path d="M390.41,334.47c-.15-.05,0-1,.4-2.12s.8-2,.95-1.93,0,1-.41,2.11S390.56,334.51,390.41,334.47Z" style="fill: rgb(38, 50, 56); transform-origin: 391.085px 332.444px;" id="elrr3omopyyr" class="animable"></path><path d="M391.8,350.41a11.24,11.24,0,0,1,1.21-3.36,11.93,11.93,0,0,1,1.73-3.13,11.14,11.14,0,0,1-1.21,3.36A11.52,11.52,0,0,1,391.8,350.41Z" style="fill: rgb(38, 50, 56); transform-origin: 393.27px 347.165px;" id="elbmwb2rjk5fb" class="animable"></path><path d="M401,357.69a17.57,17.57,0,0,1,1.1-6.2,17.57,17.57,0,0,1-1.1,6.2Z" style="fill: rgb(38, 50, 56); transform-origin: 401.55px 354.59px;" id="elb83onn82dbn" class="animable"></path><path d="M405.81,333.59a6.43,6.43,0,0,1-2.62-.29,6.24,6.24,0,0,1-2.49-.84,6,6,0,0,1,2.62.29A6.24,6.24,0,0,1,405.81,333.59Z" style="fill: rgb(38, 50, 56); transform-origin: 403.255px 333.021px;" id="el11m5ej4ehj3" class="animable"></path><path d="M404.72,324.21a4.63,4.63,0,0,1-2.21-.13c-1.2-.22-2.14-.53-2.11-.68s1-.1,2.21.12S404.75,324.05,404.72,324.21Z" style="fill: rgb(38, 50, 56); transform-origin: 402.56px 323.801px;" id="elgaj7zzntry" class="animable"></path><g id="elv4z23b7diui"><g style="opacity: 0.3; transform-origin: 399.311px 309.686px;" class="animable"><path d="M394,270.41c.39,0,.62,4.85.31,12.64-.15,3.9-.42,8.53-.72,13.65s-.66,10.76-.78,16.64a65.23,65.23,0,0,0,1.38,16.28,46.7,46.7,0,0,0,2,6.8,25.07,25.07,0,0,0,2.9,5.33,17.53,17.53,0,0,0,6.63,5.63c1.9.92,3.08,1.21,3,1.44s-1.28.24-3.45-.41A16.6,16.6,0,0,1,397.5,343a25,25,0,0,1-3.47-5.64,43,43,0,0,1-2.4-7.11,61.42,61.42,0,0,1-1.68-17c.13-6,.56-11.64,1-16.77s.92-9.73,1.32-13.6C393.11,275.18,393.58,270.4,394,270.41Z" id="elf6o91j3yl16" class="animable" style="transform-origin: 399.311px 309.686px;"></path></g></g><path d="M446.15,363.61a10.58,10.58,0,0,1-4.92,0,10.95,10.95,0,0,1,4.92,0Z" style="fill: rgb(38, 50, 56); transform-origin: 443.69px 363.615px;" id="eleu6qt772qcs" class="animable"></path><path d="M446,351.75a5.26,5.26,0,0,1-2.38-.23c-1.28-.28-2.29-.63-2.25-.79a5.22,5.22,0,0,1,2.37.23C445,351.24,446,351.59,446,351.75Z" style="fill: rgb(38, 50, 56); transform-origin: 443.684px 351.24px;" id="elln0xugm7xab" class="animable"></path><path d="M446.58,338.47a7.15,7.15,0,0,1-2.84,0,7.23,7.23,0,0,1-2.8-.52,7.46,7.46,0,0,1,2.85-.05A7.15,7.15,0,0,1,446.58,338.47Z" style="fill: rgb(38, 50, 56); transform-origin: 443.76px 338.199px;" id="elhunsi95kkfe" class="animable"></path><path d="M444.71,326.72a4.93,4.93,0,0,1-2.22-.68c-1.16-.52-2-1.06-2-1.2s1.05.16,2.21.68S444.77,326.57,444.71,326.72Z" style="fill: rgb(38, 50, 56); transform-origin: 442.601px 325.763px;" id="elbk7sjbvl95" class="animable"></path><path d="M445.86,316.73a5.19,5.19,0,0,1-2.31-1.39c-1.14-1-1.85-2-1.74-2.08s1,.7,2.11,1.65S446,316.6,445.86,316.73Z" style="fill: rgb(38, 50, 56); transform-origin: 443.836px 314.992px;" id="elqtl653yyzq7" class="animable"></path><path d="M449.32,309.36c-.14.07-.71-.81-1.27-2s-.9-2.15-.76-2.22.71.81,1.27,2S449.46,309.29,449.32,309.36Z" style="fill: rgb(38, 50, 56); transform-origin: 448.305px 307.25px;" id="elvgfi59bzy2m" class="animable"></path><path d="M459.19,306.76c.12.1-.42,1-1.07,2s-1.16,1.92-1.3,1.86.15-1.07.82-2.16S459.07,306.66,459.19,306.76Z" style="fill: rgb(38, 50, 56); transform-origin: 457.996px 308.687px;" id="elggq6f6qn7el" class="animable"></path><path d="M463.8,319.77a5.26,5.26,0,0,1-2.64.65,5.41,5.41,0,0,1-2.71-.21,8.71,8.71,0,0,1,2.67-.36A8.9,8.9,0,0,1,463.8,319.77Z" style="fill: rgb(38, 50, 56); transform-origin: 461.125px 320.104px;" id="el9ndqd313tzo" class="animable"></path><path d="M463.66,329.18a6.78,6.78,0,0,1-2.26,1.54,6.53,6.53,0,0,1-2.53,1,7.13,7.13,0,0,1,2.26-1.54A6.78,6.78,0,0,1,463.66,329.18Z" style="fill: rgb(38, 50, 56); transform-origin: 461.265px 330.45px;" id="elpyae6lp43j" class="animable"></path><path d="M463.93,344.55c-.07.14-1-.16-2.08-.68s-1.9-1.05-1.83-1.19,1,.16,2.08.68S464,344.41,463.93,344.55Z" style="fill: rgb(38, 50, 56); transform-origin: 461.975px 343.615px;" id="ell9y3aga34w" class="animable"></path><path d="M463.07,353c.07.14-.69.65-1.68,1.13s-1.87.75-1.94.61.69-.65,1.69-1.13S463,352.89,463.07,353Z" style="fill: rgb(38, 50, 56); transform-origin: 461.26px 353.875px;" id="eld252b31nam" class="animable"></path><path d="M460.78,371c-.11.11-.85-.52-1.65-1.4s-1.36-1.67-1.24-1.78.86.52,1.66,1.4S460.9,370.87,460.78,371Z" style="fill: rgb(38, 50, 56); transform-origin: 459.335px 369.41px;" id="elx3lm0s7rpwg" class="animable"></path><path d="M455,386.62a12.71,12.71,0,0,1-.79-2.81,12.37,12.37,0,0,1-.66-2.84,5.67,5.67,0,0,1,1.21,2.7A5.76,5.76,0,0,1,455,386.62Z" style="fill: rgb(38, 50, 56); transform-origin: 454.321px 383.795px;" id="elchbiyyo1v0p" class="animable"></path><path d="M444.45,394.72a7.12,7.12,0,0,1-.08-2.77,6.89,6.89,0,0,1,.48-2.73,7,7,0,0,1,.09,2.77A6.79,6.79,0,0,1,444.45,394.72Z" style="fill: rgb(38, 50, 56); transform-origin: 444.654px 391.97px;" id="elvx05e8n88e" class="animable"></path><path d="M443.83,376.5c-.09.13-1.09-.38-2.25-1.14s-2-1.48-1.94-1.61a5.87,5.87,0,0,1,2.25,1.14C443.05,375.65,443.92,376.37,443.83,376.5Z" style="fill: rgb(38, 50, 56); transform-origin: 441.737px 375.135px;" id="elxdecl4ep65" class="animable"></path><path d="M457.28,348.29c-.1.11-.86-.37-1.7-1.09s-1.44-1.4-1.34-1.52.87.37,1.71,1.09S457.39,348.17,457.28,348.29Z" style="fill: rgb(38, 50, 56); transform-origin: 455.761px 346.984px;" id="el8gbzoxsqrv9" class="animable"></path><path d="M449.8,329.06c.11.11-.59,1-1.55,1.93s-1.83,1.63-1.95,1.52.59-1,1.55-1.92S449.69,329,449.8,329.06Z" style="fill: rgb(38, 50, 56); transform-origin: 448.049px 330.789px;" id="ellvwoysa1tgl" class="animable"></path><path d="M458,314c.08.14-.59.66-1.48,1.18s-1.69.82-1.77.68.58-.66,1.48-1.17S457.92,313.82,458,314Z" style="fill: rgb(38, 50, 56); transform-origin: 456.375px 314.924px;" id="el5jdfqacz5zn" class="animable"></path><path d="M449.43,384c-.14.06-.57-.62-1-1.52s-.58-1.68-.44-1.75.57.62,1,1.53S449.57,383.9,449.43,384Z" style="fill: rgb(38, 50, 56); transform-origin: 448.71px 382.364px;" id="eljq958if6br" class="animable"></path><path d="M415.05,282.22a8.16,8.16,0,0,1-3.05.13,8.76,8.76,0,0,1-3-.44,8.23,8.23,0,0,1,3.06-.13A8.61,8.61,0,0,1,415.05,282.22Z" style="fill: rgb(38, 50, 56); transform-origin: 412.025px 282.065px;" id="el98jovk4snd" class="animable"></path><path d="M414.09,264.69a15.47,15.47,0,0,1-5.44-2.24,7.6,7.6,0,0,1,2.83.85A7.73,7.73,0,0,1,414.09,264.69Z" style="fill: rgb(38, 50, 56); transform-origin: 411.37px 263.57px;" id="eldgg2fyggmwn" class="animable"></path><path d="M415.69,242.93a7.09,7.09,0,0,1-5.44-2.88c.12-.12,1.17.78,2.66,1.56S415.72,242.77,415.69,242.93Z" style="fill: rgb(38, 50, 56); transform-origin: 412.97px 241.485px;" id="elhkkv4xcqek" class="animable"></path><path d="M419.71,232.76a15.18,15.18,0,0,1-2.8-5.16,15.43,15.43,0,0,1,2.8,5.16Z" style="fill: rgb(38, 50, 56); transform-origin: 418.31px 230.18px;" id="elagkjo4ixhf8" class="animable"></path><path d="M433.58,229.79a8.54,8.54,0,0,1-1.74,2.54c-1.08,1.31-2.06,2.29-2.18,2.19A8.65,8.65,0,0,1,431.4,232C432.48,230.66,433.46,229.69,433.58,229.79Z" style="fill: rgb(38, 50, 56); transform-origin: 431.62px 232.155px;" id="el9vc7je68hss" class="animable"></path><path d="M437.1,244.81c.09.13-.84.95-2.08,1.83a6.86,6.86,0,0,1-2.41,1.36c-.09-.13.84-.95,2.08-1.83A6.86,6.86,0,0,1,437.1,244.81Z" style="fill: rgb(38, 50, 56); transform-origin: 434.855px 246.405px;" id="elgloeql692dl" class="animable"></path><path d="M438.73,265.65a5.67,5.67,0,0,1-2.33.91,5.81,5.81,0,0,1-2.47.37c0-.16,1-.57,2.32-.92A5.57,5.57,0,0,1,438.73,265.65Z" style="fill: rgb(38, 50, 56); transform-origin: 436.33px 266.287px;" id="ell86dy7etmvj" class="animable"></path><path d="M437.76,283.3A15,15,0,0,1,432,283a14.45,14.45,0,0,1,5.76.3Z" style="fill: rgb(38, 50, 56); transform-origin: 434.88px 283.145px;" id="elbs2zfmi306o" class="animable"></path><path d="M438.09,301.16a9.72,9.72,0,0,1-2.74,1.85,10,10,0,0,1-3,1.35,19.08,19.08,0,0,1,5.76-3.2Z" style="fill: rgb(38, 50, 56); transform-origin: 435.23px 302.76px;" id="ellzeq3eyw4wq" class="animable"></path><path d="M413.44,309.85a8.79,8.79,0,0,1-3.1-.37,9,9,0,0,1-3-.92,17.3,17.3,0,0,1,6.08,1.29Z" style="fill: rgb(38, 50, 56); transform-origin: 410.39px 309.213px;" id="eltt2jk5rsaa" class="animable"></path><path d="M414,325.41a19.25,19.25,0,0,1-5.08,4.2,9.9,9.9,0,0,1,2.36-2.32A9.77,9.77,0,0,1,414,325.41Z" style="fill: rgb(38, 50, 56); transform-origin: 411.46px 327.51px;" id="elm4tkwgdtmo" class="animable"></path><path d="M414.39,371.89a12.45,12.45,0,0,1-3.06-2.18,12.63,12.63,0,0,1-2.7-2.61,25.16,25.16,0,0,1,5.76,4.79Z" style="fill: rgb(38, 50, 56); transform-origin: 411.51px 369.495px;" id="elqzemx5vqqgg" class="animable"></path><path d="M413.77,385c.1.12-.75,1-1.9,2s-2.16,1.66-2.26,1.54.75-1,1.9-2S413.67,384.87,413.77,385Z" style="fill: rgb(38, 50, 56); transform-origin: 411.69px 386.769px;" id="eltgfxgwhp1jh" class="animable"></path><path d="M436.78,355.83a9.13,9.13,0,0,1-2.4,2.14,9.25,9.25,0,0,1-2.73,1.69c-.1-.13,1-1.08,2.39-2.14A9.35,9.35,0,0,1,436.78,355.83Z" style="fill: rgb(38, 50, 56); transform-origin: 434.212px 357.745px;" id="el2gblsx19jl3" class="animable"></path><path d="M437.13,333.48a5.41,5.41,0,0,1-2.64,1.75,5.28,5.28,0,0,1-3.12.49,26.94,26.94,0,0,1,2.92-1A26.89,26.89,0,0,1,437.13,333.48Z" style="fill: rgb(38, 50, 56); transform-origin: 434.25px 334.629px;" id="elodc9pwbg1j" class="animable"></path><path d="M437.45,317.14a6,6,0,0,1-2.5-.69,6.11,6.11,0,0,1-2.3-1.23,6.31,6.31,0,0,1,2.51.7A6.24,6.24,0,0,1,437.45,317.14Z" style="fill: rgb(38, 50, 56); transform-origin: 435.05px 316.18px;" id="el6g52fv767ix" class="animable"></path><path d="M438.7,400a10.6,10.6,0,0,1-2.92,1.69,10.26,10.26,0,0,1-3.17,1.17,10.14,10.14,0,0,1,2.92-1.69A9.87,9.87,0,0,1,438.7,400Z" style="fill: rgb(38, 50, 56); transform-origin: 435.655px 401.43px;" id="elxeowozidqsr" class="animable"></path><path d="M413.78,296.35a13.81,13.81,0,0,1-3.06-2.36,13.28,13.28,0,0,1-2.69-2.77,25.72,25.72,0,0,1,5.75,5.13Z" style="fill: rgb(38, 50, 56); transform-origin: 410.905px 293.785px;" id="elbbugo8tew6s" class="animable"></path><path d="M439.37,288a18.69,18.69,0,0,1-5.44,3.52,18.34,18.34,0,0,1,5.44-3.52Z" style="fill: rgb(38, 50, 56); transform-origin: 436.65px 289.76px;" id="el3vvqzzl6117" class="animable"></path><path d="M413.13,253.17a4.94,4.94,0,0,1-2.28,0,4.88,4.88,0,0,1-2.2-.6c0-.16,1-.14,2.28,0S413.15,253,413.13,253.17Z" style="fill: rgb(38, 50, 56); transform-origin: 410.89px 252.88px;" id="ely6mcdkpsxd" class="animable"></path><path d="M437.45,254.45a5.4,5.4,0,0,1-2.15,1.06,5.26,5.26,0,0,1-2.33.54c-.06-.15.9-.63,2.14-1.07A5.2,5.2,0,0,1,437.45,254.45Z" style="fill: rgb(38, 50, 56); transform-origin: 435.209px 255.25px;" id="ello5c95xsqs" class="animable"></path><path d="M424.67,292.54a8.69,8.69,0,0,1-1.7,2.58c-1.06,1.32-2,2.31-2.15,2.21a8.63,8.63,0,0,1,1.71-2.57C423.59,293.44,424.55,292.44,424.67,292.54Z" style="fill: rgb(38, 50, 56); transform-origin: 422.745px 294.935px;" id="el1m5v3ffwqme" class="animable"></path><path d="M424.65,275.88c-.08.13-1.13-.5-2-1.71a3.76,3.76,0,0,1-.91-2.45c.16,0,.59,1,1.38,2.13S424.75,275.75,424.65,275.88Z" style="fill: rgb(38, 50, 56); transform-origin: 423.199px 273.808px;" id="elop70erpcfp" class="animable"></path><path d="M424.33,252.21a19.69,19.69,0,0,1-1.65,2.2,20.45,20.45,0,0,1-1.55,2.28,4.48,4.48,0,0,1,1.09-2.61C423.14,252.78,424.24,252.09,424.33,252.21Z" style="fill: rgb(38, 50, 56); transform-origin: 422.73px 254.443px;" id="elzvuj7b1xie" class="animable"></path><path d="M422.41,316.52a5.22,5.22,0,0,1,.53-2.34c.44-1.23.92-2.19,1.07-2.14a5.22,5.22,0,0,1-.53,2.34C423,315.61,422.56,316.57,422.41,316.52Z" style="fill: rgb(38, 50, 56); transform-origin: 423.21px 314.28px;" id="eljscnmx08b0h" class="animable"></path><path d="M418.81,350.79a29.18,29.18,0,0,1-3.55-7.34,14.87,14.87,0,0,1,2,3.55A14.41,14.41,0,0,1,418.81,350.79Z" style="fill: rgb(38, 50, 56); transform-origin: 417.035px 347.12px;" id="elau33ukglko" class="animable"></path><path d="M425.22,356.16a18.32,18.32,0,0,1-1.84,4.12,17.76,17.76,0,0,1-2.35,3.86,36.75,36.75,0,0,1,4.19-8Z" style="fill: rgb(38, 50, 56); transform-origin: 423.125px 360.14px;" id="elfxdv2koy0ra" class="animable"></path><path d="M424.91,392.7a27.17,27.17,0,0,1-3.55-7,13.54,13.54,0,0,1,2,3.38A13.87,13.87,0,0,1,424.91,392.7Z" style="fill: rgb(38, 50, 56); transform-origin: 423.135px 389.2px;" id="el4on1j140jxx" class="animable"></path><path d="M422.73,403.87a7.62,7.62,0,0,1-1.36,2.56c-.89,1.32-1.71,2.33-1.84,2.24a7.62,7.62,0,0,1,1.36-2.56C421.78,404.79,422.6,403.78,422.73,403.87Z" style="fill: rgb(38, 50, 56); transform-origin: 421.13px 406.27px;" id="elivtuaj9q4j" class="animable"></path><g id="ellcei8fzcuya"><g style="opacity: 0.3; transform-origin: 427.82px 326.925px;" class="animable"><path d="M427.82,234.41c.79,0,1.42,41.42,1.42,92.51s-.63,92.52-1.42,92.52S426.4,378,426.4,326.92,427,234.41,427.82,234.41Z" id="elq4iuirsxu2" class="animable" style="transform-origin: 427.82px 326.925px;"></path></g></g><g id="el01fsqm7aozgb"><g style="opacity: 0.3; transform-origin: 446.065px 347.881px;" class="animable"><path d="M453.49,309.09c.39,0,.85,4.72,1.08,12.38s.19,18.22.4,29.87A72.85,72.85,0,0,1,453.54,368a34.19,34.19,0,0,1-2.41,7,51.77,51.77,0,0,1-3.1,5.59,13.44,13.44,0,0,1-3.79,3.95,12.72,12.72,0,0,1-3.73,1.64c-2.14.56-3.34.56-3.38.4s1.09-.6,3-1.44a13.71,13.71,0,0,0,3.18-1.89,12.58,12.58,0,0,0,3-3.72,58.24,58.24,0,0,0,2.66-5.51,33.94,33.94,0,0,0,2-6.61,79.85,79.85,0,0,0,1.15-16.08c-.21-11.68.16-22.27.43-29.9S453.09,309.1,453.49,309.09Z" id="elwqy3d3nyr2" class="animable" style="transform-origin: 446.065px 347.881px;"></path></g></g><rect x="387.88" y="416.24" width="76.03" height="13.48" style="fill: rgb(255, 114, 94); transform-origin: 425.895px 422.98px;" id="el7d3r2zkqg6v" class="animable"></rect><polygon points="393.56 427.05 402.8 467.31 448.12 467.31 458.23 427.05 393.56 427.05" style="fill: rgb(255, 114, 94); transform-origin: 425.895px 447.18px;" id="elg9rlyvqdvb" class="animable"></polygon><path d="M463.87,429.74c0,.14-17.15.26-38.3.26s-38.3-.12-38.3-.26,17.14-.27,38.3-.27S463.87,429.59,463.87,429.74Z" style="fill: rgb(38, 50, 56); transform-origin: 425.57px 429.735px;" id="elngws7eluok" class="animable"></path></g><g id="freepik--Floor--inject-2" class="animable animator-hidden" style="transform-origin: 250.025px 467.195px;"><path d="M472.05,467.19c0,.15-99.42.27-222,.27S28,467.34,28,467.19s99.4-.26,222.06-.26S472.05,467.05,472.05,467.19Z" style="fill: rgb(38, 50, 56); transform-origin: 250.025px 467.195px;" id="elqv4t6409rl" class="animable"></path></g><defs>     <filter id="active" height="200%">         <feMorphology in="SourceAlpha" result="DILATED" operator="dilate" radius="2"></feMorphology>                <feFlood flood-color="#32DFEC" flood-opacity="1" result="PINK"></feFlood>        <feComposite in="PINK" in2="DILATED" operator="in" result="OUTLINE"></feComposite>        <feMerge>            <feMergeNode in="OUTLINE"></feMergeNode>            <feMergeNode in="SourceGraphic"></feMergeNode>        </feMerge>    </filter>    <filter id="hover" height="200%">        <feMorphology in="SourceAlpha" result="DILATED" operator="dilate" radius="2"></feMorphology>                <feFlood flood-color="#ff0000" flood-opacity="0.5" result="PINK"></feFlood>        <feComposite in="PINK" in2="DILATED" operator="in" result="OUTLINE"></feComposite>        <feMerge>            <feMergeNode in="OUTLINE"></feMergeNode>            <feMergeNode in="SourceGraphic"></feMergeNode>        </feMerge>            <feColorMatrix type="matrix" values="0   0   0   0   0                0   1   0   0   0                0   0   0   0   0                0   0   0   1   0 "></feColorMatrix>    </filter></defs></svg>